<svg xmlns="http://www.w3.org/2000/svg" viewBox="0 0 1584 576">
  <defs>
    <style>
      .cls-1 {
        fill: #fff;
      }

      .cls-2 {
        fill: none;
        stroke: #000;
        stroke-miterlimit: 10;
      }
    </style>
  </defs>
  <title>facade-pattern</title>
  <g id="facade">
    <g>
      <rect class="cls-1" x="270.5" y="0.5" width="143" height="71"/>
      <path d="M485,73v70H343V73H485m1-1H342v72H486V72Z" transform="translate(-72 -72)"/>
    </g>
    <g>
      <rect class="cls-1" x="270.5" y="216.5" width="143" height="71"/>
      <path d="M485,289v70H343V289H485m1-1H342v72H486V288Z" transform="translate(-72 -72)"/>
    </g>
    <g>
      <rect class="cls-1" x="0.5" y="504.5" width="143" height="71"/>
      <path d="M215,577v70H73V577H215m1-1H72v72H216V576Z" transform="translate(-72 -72)"/>
    </g>
    <g>
      <rect class="cls-1" x="180.5" y="504.5" width="143" height="71"/>
      <path d="M395,577v70H253V577H395m1-1H252v72H396V576Z" transform="translate(-72 -72)"/>
    </g>
    <g>
      <rect class="cls-1" x="360.5" y="504.5" width="143" height="71"/>
      <path d="M575,577v70H433V577H575m1-1H432v72H576V576Z" transform="translate(-72 -72)"/>
    </g>
    <g>
      <rect class="cls-1" x="576.5" y="504.5" width="143" height="71"/>
      <path d="M791,577v70H649V577H791m1-1H648v72H792V576Z" transform="translate(-72 -72)"/>
    </g>
    <g>
      <line class="cls-2" x1="341.5" y1="71.5" x2="341.5" y2="213.7"/>
      <path d="M406.3,275.44a.76.76,0,0,1,1,.24l6.16,9.67,6.16-9.67a.75.75,0,1,1,1.27.8l-6.8,10.67a.74.74,0,0,1-1.26,0l-6.8-10.67a.72.72,0,0,1-.12-.4A.78.78,0,0,1,406.3,275.44Z" transform="translate(-72 -72)"/>
    </g>
    <g>
      <line class="cls-2" x1="296.5" y1="287.5" x2="72.8" y2="502.25"/>
      <path d="M147.21,562a.74.74,0,0,1,.55.9L145.05,574l11.25-2.25a.74.74,0,0,1,.88.58.75.75,0,0,1-.59.89l-12.4,2.49a.77.77,0,0,1-.69-.22.75.75,0,0,1-.19-.7l3-12.29a.77.77,0,0,1,.21-.36A.74.74,0,0,1,147.21,562Z" transform="translate(-72 -72)"/>
    </g>
    <g>
      <line class="cls-2" x1="323.5" y1="287.5" x2="252.07" y2="501.79"/>
      <path d="M320.48,561.79a.75.75,0,0,1,.91.54l2.79,11.13,8.91-7.23a.75.75,0,0,1,1.05.11.76.76,0,0,1-.11,1.06l-9.82,8a.76.76,0,0,1-.71.13A.75.75,0,0,1,323,575l-3.07-12.27a.75.75,0,0,1,0-.42A.73.73,0,0,1,320.48,561.79Z" transform="translate(-72 -72)"/>
    </g>
    <g>
      <line class="cls-2" x1="386.5" y1="287.5" x2="646.11" y2="502.35"/>
      <path d="M705.62,573.36a.75.75,0,0,1,.84-.65l11.39,1.42-3.53-10.92a.74.74,0,0,1,.48-.94.75.75,0,0,1,1,.48l3.89,12a.79.79,0,0,1-.14.71.75.75,0,0,1-.67.27l-12.56-1.57a.77.77,0,0,1-.65-.84Z" transform="translate(-72 -72)"/>
    </g>
    <g>
      <line class="cls-2" x1="359.5" y1="287.5" x2="430.93" y2="501.79"/>
      <path d="M492.86,566.34a.75.75,0,0,1,1.05-.11l8.91,7.23,2.79-11.13a.75.75,0,1,1,1.45.37L504,575a.75.75,0,0,1-.49.53.76.76,0,0,1-.71-.13l-9.82-8a.76.76,0,0,1-.11-1.06Z" transform="translate(-72 -72)"/>
    </g>
    <g>
      <path d="M599.42,624.05v2.37h-2.37v-2.37Z" transform="translate(-72 -72)"/>
      <path d="M613.18,624.05v2.37H610.8v-2.37Z" transform="translate(-72 -72)"/>
      <path d="M626.93,624.05v2.37h-2.38v-2.37Z" transform="translate(-72 -72)"/>
    </g>
    <g>
      <path d="M394.92,103.8a5.47,5.47,0,0,0-1.13-2.11,5.24,5.24,0,0,0-4.15-1.73c-3.89,0-6.34,3-6.34,7.75s2.48,7.78,6.34,7.78a5.45,5.45,0,0,0,4.49-2,5.4,5.4,0,0,0,1-2.4l2,.48a7.9,7.9,0,0,1-1.29,2.86,7.46,7.46,0,0,1-6.22,2.78,7.67,7.67,0,0,1-5.62-2.11,11.55,11.55,0,0,1,.15-14.76,7.54,7.54,0,0,1,5.49-2,7.06,7.06,0,0,1,7.25,5Z" transform="translate(-72 -72)"/>
      <path d="M402.12,98.61a17.53,17.53,0,0,0-.17,2.72v12.84a19,19,0,0,0,.17,2.69H400a18.17,18.17,0,0,0,.17-2.69V101.3a17.37,17.37,0,0,0-.17-2.69Z" transform="translate(-72 -72)"/>
      <path d="M407.83,98.61v2.14H405.5V98.61Zm-.09,5.31a17.13,17.13,0,0,0-.17,2.71v7.51a19,19,0,0,0,.17,2.72h-2.16a21,21,0,0,0,.16-2.72v-7.51a17.7,17.7,0,0,0-.16-2.71Z" transform="translate(-72 -72)"/>
      <path d="M412.46,110.66a5.53,5.53,0,0,0,1,3.36,4,4,0,0,0,3.39,1.64,3.92,3.92,0,0,0,4-2.81l1.68.67a5.77,5.77,0,0,1-1.32,2,6,6,0,0,1-4.35,1.68c-3.76,0-6.14-2.64-6.14-6.79s2.35-6.79,5.95-6.79a5.67,5.67,0,0,1,5.81,5.21c0,.26.12,1.2.17,1.84Zm8.19-1.51a4.39,4.39,0,0,0-1.27-3,3.91,3.91,0,0,0-2.84-1.08,3.74,3.74,0,0,0-3.4,2.09,4.88,4.88,0,0,0-.6,1.94Z" transform="translate(-72 -72)"/>
      <path d="M425.35,116.86a14.87,14.87,0,0,0,.19-2.72v-7.51a15.58,15.58,0,0,0-.19-2.71h2v1.63a6.56,6.56,0,0,1-.07,1,5.21,5.21,0,0,1,4.85-2.9,4.32,4.32,0,0,1,3.84,1.8,4.86,4.86,0,0,1,.67,2.76v5.93a16.37,16.37,0,0,0,.17,2.69h-2.16a19.46,19.46,0,0,0,.17-2.72v-5.59c0-2.16-1-3.31-2.93-3.31a4.18,4.18,0,0,0-3.43,1.9,5.12,5.12,0,0,0-1.11,2.37v4.63a19.46,19.46,0,0,0,.17,2.72Z" transform="translate(-72 -72)"/>
      <path d="M443.86,100.34a17.36,17.36,0,0,0-.17,2.67v.91h1.15a13.74,13.74,0,0,0,2.45-.15v1.83a14.5,14.5,0,0,0-2.45-.14h-1.15v8.35c0,.69.09,1,.31,1.27a1.64,1.64,0,0,0,1.18.41,3.33,3.33,0,0,0,1.89-.63l.53,1.68a6.43,6.43,0,0,1-2.71.56,3.27,3.27,0,0,1-2.35-.75,3,3,0,0,1-.68-2.3v-8.59h-1a15.57,15.57,0,0,0-2.16.14v-1.83a10.2,10.2,0,0,0,2.16.15h1V103a18.34,18.34,0,0,0-.16-2.67Z" transform="translate(-72 -72)"/>
    </g>
    <g>
      <path d="M375.17,330.05a15.58,15.58,0,0,0,.19,2.81h-2.28a15.51,15.51,0,0,0,.19-2.81V317.28a17.26,17.26,0,0,0-.19-2.74c.84,0,1.49.07,2.64.07h6.36a18.74,18.74,0,0,0,2.76-.16v2a16.82,16.82,0,0,0-2.76-.17h-6.91v6.19h5.62a18.29,18.29,0,0,0,2.73-.17v2a16.66,16.66,0,0,0-2.73-.17h-5.62Z" transform="translate(-72 -72)"/>
      <path d="M395.93,331.15a6.4,6.4,0,0,1-2.21,1.47,7.15,7.15,0,0,1-2.5.48c-2.64,0-4.24-1.37-4.24-3.65,0-1.92,1.2-3.31,3.43-3.94a19.46,19.46,0,0,1,5.52-.62V323.5c0-1.64-1-2.48-3-2.48a3.91,3.91,0,0,0-3,1,3.34,3.34,0,0,0-.75,1.39l-1.87-.41a4.79,4.79,0,0,1,1.35-2.14,6,6,0,0,1,4.22-1.37c3.17,0,4.8,1.35,4.8,3.94v6.75a15.76,15.76,0,0,0,.19,2.64h-1.94Zm0-4.85c-2.86.08-4.23.24-5.31.7a2.55,2.55,0,0,0-1.82,2.47c0,1.32,1,2.16,2.54,2.16a5.45,5.45,0,0,0,3.85-1.7,2.63,2.63,0,0,0,.74-2.07Z" transform="translate(-72 -72)"/>
      <path d="M410.38,323.88c-.7-1.87-1.85-2.76-3.63-2.76-2.64,0-4.32,2.06-4.32,5.28s1.73,5.18,4.42,5.18a3.56,3.56,0,0,0,3.12-1.53,3.94,3.94,0,0,0,.53-1.23l1.8.48a6.59,6.59,0,0,1-1,1.85,5.52,5.52,0,0,1-4.53,2c-3.77,0-6.2-2.62-6.2-6.72s2.4-6.87,6.08-6.87a5.44,5.44,0,0,1,4.63,2.21,6.82,6.82,0,0,1,.84,1.54Z" transform="translate(-72 -72)"/>
      <path d="M423.6,331.15a6.4,6.4,0,0,1-2.21,1.47,7.1,7.1,0,0,1-2.49.48c-2.64,0-4.25-1.37-4.25-3.65,0-1.92,1.2-3.31,3.43-3.94a19.51,19.51,0,0,1,5.52-.62V323.5c0-1.64-1-2.48-3-2.48a3.93,3.93,0,0,0-3,1,3.35,3.35,0,0,0-.74,1.39L415,323a4.87,4.87,0,0,1,1.35-2.14,6,6,0,0,1,4.22-1.37c3.17,0,4.8,1.35,4.8,3.94v6.75a15.76,15.76,0,0,0,.19,2.64H423.6Zm0-4.85c-2.86.08-4.22.24-5.3.7a2.54,2.54,0,0,0-1.83,2.47c0,1.32,1,2.16,2.55,2.16a5.44,5.44,0,0,0,3.84-1.7,2.63,2.63,0,0,0,.74-2.07Z" transform="translate(-72 -72)"/>
      <path d="M439,331.68a10.16,10.16,0,0,1,.07-1.18,5.35,5.35,0,0,1-4.87,2.6c-3.7,0-5.95-2.55-5.95-6.72s2.3-6.73,5.9-6.73a5.51,5.51,0,0,1,4.92,2.55l0-.36a6.57,6.57,0,0,1-.08-1.27v-3.22a19,19,0,0,0-.16-2.74h2.11a19.66,19.66,0,0,0-.17,2.72V330.1a18.71,18.71,0,0,0,.17,2.76H439Zm-8.86-5.35a6.22,6.22,0,0,0,1,3.74,3.94,3.94,0,0,0,3.21,1.44c2.81,0,4.61-2,4.61-5.21a5.32,5.32,0,0,0-1.34-3.81,4.64,4.64,0,0,0-3.27-1.28C431.74,321.21,430.15,323.14,430.15,326.33Z" transform="translate(-72 -72)"/>
      <path d="M445.58,326.66a5.53,5.53,0,0,0,1,3.36,4,4,0,0,0,3.39,1.64,3.92,3.92,0,0,0,4-2.81l1.68.67a5.77,5.77,0,0,1-1.32,2,6,6,0,0,1-4.35,1.68c-3.76,0-6.14-2.64-6.14-6.79s2.35-6.79,5.95-6.79a5.67,5.67,0,0,1,5.81,5.21c0,.26.12,1.2.17,1.84Zm8.19-1.51a4.44,4.44,0,0,0-1.27-2.95,3.91,3.91,0,0,0-2.84-1.08,3.74,3.74,0,0,0-3.4,2.09,4.88,4.88,0,0,0-.6,1.94Z" transform="translate(-72 -72)"/>
    </g>
    <g>
      <path d="M119.28,607.8a5.47,5.47,0,0,0-1.13-2.11A5.24,5.24,0,0,0,114,604c-3.89,0-6.33,3-6.33,7.75s2.47,7.78,6.33,7.78a5.45,5.45,0,0,0,4.49-2,5.4,5.4,0,0,0,1-2.4l2,.48a7.9,7.9,0,0,1-1.29,2.86,7.46,7.46,0,0,1-6.22,2.78,7.67,7.67,0,0,1-5.62-2.11,11.55,11.55,0,0,1,.15-14.76,7.54,7.54,0,0,1,5.49-2,7.06,7.06,0,0,1,7.25,5Z" transform="translate(-72 -72)"/>
      <path d="M126.48,602.61a17.53,17.53,0,0,0-.17,2.72v12.84a19,19,0,0,0,.17,2.69h-2.16a18.17,18.17,0,0,0,.17-2.69V605.3a17.37,17.37,0,0,0-.17-2.69Z" transform="translate(-72 -72)"/>
      <path d="M138.43,619.15a6.37,6.37,0,0,1-2.2,1.47,7.19,7.19,0,0,1-2.5.48c-2.64,0-4.25-1.37-4.25-3.65,0-1.92,1.2-3.32,3.43-3.94a19.51,19.51,0,0,1,5.52-.62V611.5c0-1.64-1-2.48-3-2.48a4,4,0,0,0-3,1,3.47,3.47,0,0,0-.74,1.4l-1.87-.41a4.78,4.78,0,0,1,1.34-2.14,6.06,6.06,0,0,1,4.23-1.36c3.16,0,4.8,1.34,4.8,3.93v6.75a14.77,14.77,0,0,0,.19,2.64h-1.95Zm0-4.85c-2.85.08-4.22.24-5.3.7a2.54,2.54,0,0,0-1.83,2.47c0,1.32,1,2.16,2.55,2.16a5.44,5.44,0,0,0,3.84-1.7,2.63,2.63,0,0,0,.74-2.07Z" transform="translate(-72 -72)"/>
      <path d="M145,617a2.71,2.71,0,0,0,.84,1.75,4.07,4.07,0,0,0,2.78.84c2.09,0,3.41-.89,3.41-2.31a1.61,1.61,0,0,0-.74-1.48,7.74,7.74,0,0,0-2.83-.87,9.12,9.12,0,0,1-3.56-1.25,2.93,2.93,0,0,1-1.29-2.52,3.19,3.19,0,0,1,1-2.32,5.24,5.24,0,0,1,3.74-1.25,5.5,5.5,0,0,1,3.77,1.15,3.9,3.9,0,0,1,1.28,2.18l-1.9.32a2.17,2.17,0,0,0-.6-1.28,3.29,3.29,0,0,0-2.5-.91c-1.75,0-3,.89-3,2.16a1.48,1.48,0,0,0,.82,1.32,9.15,9.15,0,0,0,2.66.82c2.33.53,3.1.81,3.82,1.37a3.17,3.17,0,0,1,1.15,2.49c0,2.4-2,3.89-5.33,3.89-2.18,0-3.86-.65-4.75-1.87a4.76,4.76,0,0,1-.77-1.9Z" transform="translate(-72 -72)"/>
      <path d="M157.85,617a2.71,2.71,0,0,0,.84,1.75,4.07,4.07,0,0,0,2.78.84c2.09,0,3.41-.89,3.41-2.31a1.61,1.61,0,0,0-.74-1.48,7.74,7.74,0,0,0-2.84-.87,9.06,9.06,0,0,1-3.55-1.25,2.93,2.93,0,0,1-1.29-2.52,3.19,3.19,0,0,1,1-2.32,5.23,5.23,0,0,1,3.74-1.25,5.52,5.52,0,0,1,3.77,1.15,3.89,3.89,0,0,1,1.27,2.18l-1.89.32a2.29,2.29,0,0,0-.6-1.28,3.3,3.3,0,0,0-2.5-.91c-1.75,0-3,.89-3,2.16a1.48,1.48,0,0,0,.82,1.32,9.15,9.15,0,0,0,2.66.82c2.33.53,3.1.81,3.82,1.37a3.17,3.17,0,0,1,1.15,2.49c0,2.4-2,3.89-5.33,3.89-2.18,0-3.86-.65-4.75-1.87a4.76,4.76,0,0,1-.77-1.9Z" transform="translate(-72 -72)"/>
      <path d="M171.62,602.49a11.31,11.31,0,0,0,2,.12h1.51a13.13,13.13,0,0,0,2-.12c-.14,1.47-.22,2.69-.22,4v11.66a14.8,14.8,0,0,0,.2,2.72h-2.28a15.59,15.59,0,0,0,.19-2.72V604.25h-1.3a14,14,0,0,0-2.09.14Z" transform="translate(-72 -72)"/>
    </g>
    <g>
      <path d="M299.28,607.8a5.47,5.47,0,0,0-1.13-2.11A5.24,5.24,0,0,0,294,604c-3.89,0-6.33,3-6.33,7.75s2.47,7.78,6.33,7.78a5.45,5.45,0,0,0,4.49-2,5.4,5.4,0,0,0,1-2.4l2,.48a7.9,7.9,0,0,1-1.29,2.86,7.46,7.46,0,0,1-6.22,2.78,7.67,7.67,0,0,1-5.62-2.11,11.55,11.55,0,0,1,.15-14.76,7.54,7.54,0,0,1,5.49-2,7.06,7.06,0,0,1,7.25,5Z" transform="translate(-72 -72)"/>
      <path d="M306.48,602.61a17.53,17.53,0,0,0-.17,2.72v12.84a19,19,0,0,0,.17,2.69h-2.16a18.17,18.17,0,0,0,.17-2.69V605.3a17.37,17.37,0,0,0-.17-2.69Z" transform="translate(-72 -72)"/>
      <path d="M318.43,619.15a6.37,6.37,0,0,1-2.2,1.47,7.19,7.19,0,0,1-2.5.48c-2.64,0-4.25-1.37-4.25-3.65,0-1.92,1.2-3.32,3.43-3.94a19.51,19.51,0,0,1,5.52-.62V611.5c0-1.64-1-2.48-3-2.48a4,4,0,0,0-3,1,3.47,3.47,0,0,0-.74,1.4l-1.87-.41a4.78,4.78,0,0,1,1.34-2.14,6.06,6.06,0,0,1,4.23-1.36c3.16,0,4.8,1.34,4.8,3.93v6.75a14.77,14.77,0,0,0,.19,2.64h-1.95Zm0-4.85c-2.85.08-4.22.24-5.3.7a2.54,2.54,0,0,0-1.83,2.47c0,1.32,1,2.16,2.55,2.16a5.44,5.44,0,0,0,3.84-1.7,2.63,2.63,0,0,0,.74-2.07Z" transform="translate(-72 -72)"/>
      <path d="M325,617a2.71,2.71,0,0,0,.84,1.75,4.07,4.07,0,0,0,2.78.84c2.09,0,3.41-.89,3.41-2.31a1.61,1.61,0,0,0-.74-1.48,7.74,7.74,0,0,0-2.83-.87,9.12,9.12,0,0,1-3.56-1.25,2.93,2.93,0,0,1-1.29-2.52,3.19,3.19,0,0,1,1-2.32,5.24,5.24,0,0,1,3.74-1.25,5.5,5.5,0,0,1,3.77,1.15,3.9,3.9,0,0,1,1.28,2.18l-1.9.32a2.17,2.17,0,0,0-.6-1.28,3.29,3.29,0,0,0-2.5-.91c-1.75,0-3,.89-3,2.16a1.48,1.48,0,0,0,.82,1.32,9.15,9.15,0,0,0,2.66.82c2.33.53,3.1.81,3.82,1.37a3.17,3.17,0,0,1,1.15,2.49c0,2.4-2,3.89-5.33,3.89-2.18,0-3.86-.65-4.75-1.87a4.76,4.76,0,0,1-.77-1.9Z" transform="translate(-72 -72)"/>
      <path d="M337.85,617a2.71,2.71,0,0,0,.84,1.75,4.07,4.07,0,0,0,2.78.84c2.09,0,3.41-.89,3.41-2.31a1.61,1.61,0,0,0-.74-1.48,7.74,7.74,0,0,0-2.84-.87,9.06,9.06,0,0,1-3.55-1.25,2.93,2.93,0,0,1-1.29-2.52,3.19,3.19,0,0,1,1-2.32,5.23,5.23,0,0,1,3.74-1.25,5.52,5.52,0,0,1,3.77,1.15,3.89,3.89,0,0,1,1.27,2.18l-1.89.32a2.29,2.29,0,0,0-.6-1.28,3.3,3.3,0,0,0-2.5-.91c-1.75,0-3,.89-3,2.16a1.48,1.48,0,0,0,.82,1.32,9.15,9.15,0,0,0,2.66.82c2.33.53,3.1.81,3.82,1.37a3.17,3.17,0,0,1,1.15,2.49c0,2.4-2,3.89-5.33,3.89-2.18,0-3.86-.65-4.75-1.87a4.76,4.76,0,0,1-.77-1.9Z" transform="translate(-72 -72)"/>
      <path d="M351.82,620.86a16.55,16.55,0,0,0-2.64.12,10.9,10.9,0,0,1,.69-3.17,10.53,10.53,0,0,1,3.12-4.13,33.49,33.49,0,0,1,3.67-2.64c2.38-1.61,3.17-2.66,3.17-4.13,0-1.82-1.53-3-4-3a4,4,0,0,0-3.48,1.56,4.86,4.86,0,0,0-.84,2.42l-2-.33A6.56,6.56,0,0,1,351,604.1a6.17,6.17,0,0,1,4.83-1.85c3.62,0,5.95,1.83,5.95,4.66a5,5,0,0,1-1.42,3.41c-.71.81-1.34,1.27-4.08,3.1a13,13,0,0,0-3.45,3,6.65,6.65,0,0,0-1.37,2.78h7.66a20.79,20.79,0,0,0,2.92-.17v2a26.06,26.06,0,0,0-2.95-.14Z" transform="translate(-72 -72)"/>
    </g>
    <g>
      <path d="M479.28,607.8a5.47,5.47,0,0,0-1.13-2.11A5.24,5.24,0,0,0,474,604c-3.89,0-6.33,3-6.33,7.75s2.47,7.78,6.33,7.78a5.45,5.45,0,0,0,4.49-2,5.4,5.4,0,0,0,1-2.4l2,.48a7.9,7.9,0,0,1-1.29,2.86,7.46,7.46,0,0,1-6.22,2.78,7.67,7.67,0,0,1-5.62-2.11,11.55,11.55,0,0,1,.15-14.76,7.54,7.54,0,0,1,5.49-2,7.06,7.06,0,0,1,7.25,5Z" transform="translate(-72 -72)"/>
      <path d="M486.48,602.61a17.53,17.53,0,0,0-.17,2.72v12.84a19,19,0,0,0,.17,2.69h-2.16a18.17,18.17,0,0,0,.17-2.69V605.3a17.37,17.37,0,0,0-.17-2.69Z" transform="translate(-72 -72)"/>
      <path d="M498.43,619.15a6.37,6.37,0,0,1-2.2,1.47,7.19,7.19,0,0,1-2.5.48c-2.64,0-4.25-1.37-4.25-3.65,0-1.92,1.2-3.32,3.43-3.94a19.51,19.51,0,0,1,5.52-.62V611.5c0-1.64-1-2.48-3-2.48a4,4,0,0,0-3,1,3.47,3.47,0,0,0-.74,1.4l-1.87-.41a4.78,4.78,0,0,1,1.34-2.14,6.06,6.06,0,0,1,4.23-1.36c3.16,0,4.8,1.34,4.8,3.93v6.75a14.77,14.77,0,0,0,.19,2.64h-1.95Zm0-4.85c-2.85.08-4.22.24-5.3.7a2.54,2.54,0,0,0-1.83,2.47c0,1.32,1,2.16,2.55,2.16a5.44,5.44,0,0,0,3.84-1.7,2.63,2.63,0,0,0,.74-2.07Z" transform="translate(-72 -72)"/>
      <path d="M505,617a2.71,2.71,0,0,0,.84,1.75,4.07,4.07,0,0,0,2.78.84c2.09,0,3.41-.89,3.41-2.31a1.61,1.61,0,0,0-.74-1.48,7.74,7.74,0,0,0-2.83-.87,9.12,9.12,0,0,1-3.56-1.25,2.93,2.93,0,0,1-1.29-2.52,3.19,3.19,0,0,1,1-2.32,5.24,5.24,0,0,1,3.74-1.25,5.5,5.5,0,0,1,3.77,1.15,3.9,3.9,0,0,1,1.28,2.18l-1.9.32a2.17,2.17,0,0,0-.6-1.28,3.29,3.29,0,0,0-2.5-.91c-1.75,0-3,.89-3,2.16a1.48,1.48,0,0,0,.82,1.32,9.15,9.15,0,0,0,2.66.82c2.33.53,3.1.81,3.82,1.37a3.17,3.17,0,0,1,1.15,2.49c0,2.4-2,3.89-5.33,3.89-2.18,0-3.86-.65-4.75-1.87a4.76,4.76,0,0,1-.77-1.9Z" transform="translate(-72 -72)"/>
      <path d="M517.85,617a2.71,2.71,0,0,0,.84,1.75,4.07,4.07,0,0,0,2.78.84c2.09,0,3.41-.89,3.41-2.31a1.61,1.61,0,0,0-.74-1.48,7.74,7.74,0,0,0-2.84-.87,9.06,9.06,0,0,1-3.55-1.25,2.93,2.93,0,0,1-1.29-2.52,3.19,3.19,0,0,1,1-2.32,5.23,5.23,0,0,1,3.74-1.25,5.52,5.52,0,0,1,3.77,1.15,3.89,3.89,0,0,1,1.27,2.18l-1.89.32a2.29,2.29,0,0,0-.6-1.28,3.3,3.3,0,0,0-2.5-.91c-1.75,0-3,.89-3,2.16a1.48,1.48,0,0,0,.82,1.32,9.15,9.15,0,0,0,2.66.82c2.33.53,3.1.81,3.82,1.37a3.17,3.17,0,0,1,1.15,2.49c0,2.4-2,3.89-5.33,3.89-2.18,0-3.86-.65-4.75-1.87a4.76,4.76,0,0,1-.77-1.9Z" transform="translate(-72 -72)"/>
      <path d="M530.86,616.42a3.65,3.65,0,0,0,1.46,2.28,5.34,5.34,0,0,0,3.1.86c2.78,0,4.53-1.44,4.53-3.72s-1.7-3.67-4.89-3.67a15,15,0,0,0-1.92.12v-1.9a9.74,9.74,0,0,0,1.77.15,4.79,4.79,0,0,0,3.51-1.11,3.29,3.29,0,0,0,1-2.33c0-2.06-1.44-3.26-3.87-3.26a3.78,3.78,0,0,0-3.19,1.27,4.59,4.59,0,0,0-.77,1.7l-2-.43a5.55,5.55,0,0,1,1.3-2.4,6.21,6.21,0,0,1,4.77-1.75c3.48,0,5.69,1.82,5.69,4.7a4.2,4.2,0,0,1-1.68,3.51,4.9,4.9,0,0,1-2.26.86,5.17,5.17,0,0,1,3,1,4.39,4.39,0,0,1,1.6,3.62c0,3.24-2.49,5.26-6.5,5.26a6.9,6.9,0,0,1-5.38-2,6.35,6.35,0,0,1-1.22-2.33Z" transform="translate(-72 -72)"/>
    </g>
    <g>
      <path d="M693.88,607.8a5.61,5.61,0,0,0-1.13-2.11A5.24,5.24,0,0,0,688.6,604c-3.89,0-6.34,3-6.34,7.75s2.47,7.78,6.34,7.78a5.48,5.48,0,0,0,4.49-2,5.4,5.4,0,0,0,1-2.4l2,.48a7.73,7.73,0,0,1-1.3,2.86,7.44,7.44,0,0,1-6.21,2.78,7.65,7.65,0,0,1-5.62-2.11,11.57,11.57,0,0,1,.14-14.76,7.58,7.58,0,0,1,5.5-2,7.06,7.06,0,0,1,7.25,5Z" transform="translate(-72 -72)"/>
      <path d="M701.08,602.61a17.53,17.53,0,0,0-.17,2.72v12.84a19,19,0,0,0,.17,2.69h-2.16a18.27,18.27,0,0,0,.16-2.69V605.3a17.5,17.5,0,0,0-.16-2.69Z" transform="translate(-72 -72)"/>
      <path d="M713,619.15a6.4,6.4,0,0,1-2.21,1.47,7.15,7.15,0,0,1-2.5.48c-2.64,0-4.24-1.37-4.24-3.65,0-1.92,1.2-3.32,3.43-3.94a19.46,19.46,0,0,1,5.52-.62V611.5c0-1.64-1-2.48-3-2.48a3.94,3.94,0,0,0-3,1,3.35,3.35,0,0,0-.74,1.4l-1.88-.41a4.79,4.79,0,0,1,1.35-2.14,6,6,0,0,1,4.22-1.36c3.17,0,4.8,1.34,4.8,3.93v6.75a15.76,15.76,0,0,0,.19,2.64H713Zm0-4.85c-2.86.08-4.23.24-5.31.7a2.55,2.55,0,0,0-1.82,2.47c0,1.32,1,2.16,2.55,2.16a5.44,5.44,0,0,0,3.84-1.7,2.63,2.63,0,0,0,.74-2.07Z" transform="translate(-72 -72)"/>
      <path d="M719.56,617a2.66,2.66,0,0,0,.84,1.75,4.07,4.07,0,0,0,2.78.84c2.09,0,3.41-.89,3.41-2.31a1.6,1.6,0,0,0-.75-1.48A7.59,7.59,0,0,0,723,615a9.06,9.06,0,0,1-3.55-1.25,2.94,2.94,0,0,1-1.3-2.52,3.16,3.16,0,0,1,1-2.32,5.23,5.23,0,0,1,3.74-1.25,5.54,5.54,0,0,1,3.77,1.15,3.89,3.89,0,0,1,1.27,2.18l-1.9.32a2.17,2.17,0,0,0-.6-1.28,3.26,3.26,0,0,0-2.49-.91c-1.75,0-3,.89-3,2.16a1.49,1.49,0,0,0,.81,1.32,9.36,9.36,0,0,0,2.67.82c2.33.53,3.09.81,3.82,1.37a3.17,3.17,0,0,1,1.15,2.49c0,2.4-2,3.89-5.33,3.89-2.19,0-3.87-.65-4.75-1.87a4.76,4.76,0,0,1-.77-1.9Z" transform="translate(-72 -72)"/>
      <path d="M732.44,617a2.71,2.71,0,0,0,.84,1.75,4.08,4.08,0,0,0,2.79.84c2.09,0,3.41-.89,3.41-2.31a1.6,1.6,0,0,0-.75-1.48,7.59,7.59,0,0,0-2.83-.87,9,9,0,0,1-3.55-1.25,2.94,2.94,0,0,1-1.3-2.52,3.19,3.19,0,0,1,1-2.32,5.25,5.25,0,0,1,3.75-1.25,5.54,5.54,0,0,1,3.77,1.15,3.89,3.89,0,0,1,1.27,2.18l-1.9.32a2.17,2.17,0,0,0-.6-1.28,3.26,3.26,0,0,0-2.49-.91c-1.76,0-3,.89-3,2.16a1.47,1.47,0,0,0,.81,1.32,9.25,9.25,0,0,0,2.67.82c2.32.53,3.09.81,3.81,1.37a3.14,3.14,0,0,1,1.15,2.49c0,2.4-2,3.89-5.32,3.89-2.19,0-3.87-.65-4.76-1.87a4.77,4.77,0,0,1-.76-1.9Z" transform="translate(-72 -72)"/>
      <path d="M746.77,602.61a12.36,12.36,0,0,0,1.23,2.16l7.58,11.36c.26.41,1,1.58,1.56,2.61-.1-1.92-.14-3-.14-3.19V605.38a14.75,14.75,0,0,0-.2-2.77H759a14.55,14.55,0,0,0-.2,2.77v12.79a13.22,13.22,0,0,0,.2,2.69h-2.62a16,16,0,0,0-1.25-2.16l-7.7-11.57c-.19-.29-1-1.66-1.32-2.31.09,1.13.14,2.31.14,2.93V618a15.83,15.83,0,0,0,.19,2.86h-2.23a14.9,14.9,0,0,0,.19-2.86V605.3a14.59,14.59,0,0,0-.19-2.69Z" transform="translate(-72 -72)"/>
    </g>
    <polygon points="412.2 153 379.8 153 396 180 412.2 153"/>
    <g>
      <path d="M455.53,179.61a14.93,14.93,0,0,0-.19,2.72v8.9a7.16,7.16,0,0,1-1.85,5.11,7.48,7.48,0,0,1-5.45,1.9,7.35,7.35,0,0,1-5.47-1.94,7.13,7.13,0,0,1-1.77-5.07v-8.86a14.31,14.31,0,0,0-.2-2.76h2.26a14.44,14.44,0,0,0-.19,2.76v8.79c0,3.46,2,5.42,5.4,5.42a5.37,5.37,0,0,0,4.2-1.6,6,6,0,0,0,1.2-3.82v-8.79a15.41,15.41,0,0,0-.19-2.76Z" transform="translate(-72 -72)"/>
      <path d="M460.31,194a2.71,2.71,0,0,0,.84,1.75,4.07,4.07,0,0,0,2.78.84c2.09,0,3.41-.89,3.41-2.31a1.61,1.61,0,0,0-.74-1.48,7.74,7.74,0,0,0-2.84-.87,9.06,9.06,0,0,1-3.55-1.25,2.93,2.93,0,0,1-1.29-2.52,3.23,3.23,0,0,1,1-2.33,5.27,5.27,0,0,1,3.74-1.24,5.52,5.52,0,0,1,3.77,1.15,3.89,3.89,0,0,1,1.27,2.18l-1.89.32a2.29,2.29,0,0,0-.6-1.28,3.3,3.3,0,0,0-2.5-.91c-1.75,0-3,.89-3,2.16a1.48,1.48,0,0,0,.82,1.32,8.84,8.84,0,0,0,2.66.82c2.33.53,3.1.81,3.82,1.37a3.17,3.17,0,0,1,1.15,2.49c0,2.4-2,3.89-5.33,3.89-2.18,0-3.86-.65-4.75-1.87a4.76,4.76,0,0,1-.77-1.9Z" transform="translate(-72 -72)"/>
      <path d="M473.15,191.66a5.4,5.4,0,0,0,1,3.36,4,4,0,0,0,3.38,1.64,3.92,3.92,0,0,0,4-2.81l1.68.67a5.64,5.64,0,0,1-1.32,2,6,6,0,0,1-4.34,1.68c-3.77,0-6.15-2.64-6.15-6.79s2.36-6.79,6-6.79a5.67,5.67,0,0,1,5.8,5.21c0,.26.13,1.2.17,1.84Zm8.18-1.51a4.35,4.35,0,0,0-1.27-3,3.89,3.89,0,0,0-2.83-1.08,3.74,3.74,0,0,0-3.41,2.09,4.88,4.88,0,0,0-.6,1.94Z" transform="translate(-72 -72)"/>
      <path d="M487.31,194a2.71,2.71,0,0,0,.84,1.75,4.07,4.07,0,0,0,2.78.84c2.09,0,3.41-.89,3.41-2.31a1.61,1.61,0,0,0-.74-1.48,7.74,7.74,0,0,0-2.84-.87,9.06,9.06,0,0,1-3.55-1.25,2.93,2.93,0,0,1-1.29-2.52,3.23,3.23,0,0,1,1-2.33,5.27,5.27,0,0,1,3.74-1.24,5.52,5.52,0,0,1,3.77,1.15,3.89,3.89,0,0,1,1.27,2.18l-1.89.32a2.29,2.29,0,0,0-.6-1.28,3.3,3.3,0,0,0-2.5-.91c-1.75,0-3,.89-3,2.16a1.48,1.48,0,0,0,.82,1.32,8.84,8.84,0,0,0,2.66.82c2.33.53,3.1.81,3.82,1.37a3.17,3.17,0,0,1,1.15,2.49c0,2.4-2,3.89-5.33,3.89-2.18,0-3.86-.65-4.75-1.87a4.76,4.76,0,0,1-.77-1.9Z" transform="translate(-72 -72)"/>
    </g>
  </g>
  <g id="service-facade">
    <g>
      <rect class="cls-1" x="1134.5" y="0.5" width="143" height="71"/>
      <path d="M1349,73v70H1207V73h142m1-1H1206v72h144V72Z" transform="translate(-72 -72)"/>
    </g>
    <g>
      <rect class="cls-1" x="1134.5" y="216.5" width="143" height="71"/>
      <path d="M1349,289v70H1207V289h142m1-1H1206v72h144V288Z" transform="translate(-72 -72)"/>
    </g>
    <g>
      <rect class="cls-1" x="864.5" y="504.5" width="143" height="71"/>
      <path d="M1079,577v70H937V577h142m1-1H936v72h144V576Z" transform="translate(-72 -72)"/>
    </g>
    <g>
      <rect class="cls-1" x="1044.5" y="504.5" width="143" height="71"/>
      <path d="M1259,577v70H1117V577h142m1-1H1116v72h144V576Z" transform="translate(-72 -72)"/>
    </g>
    <g>
      <rect class="cls-1" x="1224.5" y="504.5" width="143" height="71"/>
      <path d="M1439,577v70H1297V577h142m1-1H1296v72h144V576Z" transform="translate(-72 -72)"/>
    </g>
    <g>
      <rect class="cls-1" x="1440.5" y="504.5" width="143" height="71"/>
      <path d="M1655,577v70H1513V577h142m1-1H1512v72h144V576Z" transform="translate(-72 -72)"/>
    </g>
    <g>
      <line class="cls-2" x1="1205.5" y1="71.5" x2="1205.5" y2="213.7"/>
      <path d="M1270.3,275.44a.76.76,0,0,1,1,.24l6.16,9.67,6.16-9.67a.75.75,0,1,1,1.27.8l-6.8,10.67a.74.74,0,0,1-1.26,0l-6.8-10.67a.72.72,0,0,1-.12-.4A.78.78,0,0,1,1270.3,275.44Z" transform="translate(-72 -72)"/>
    </g>
    <g>
      <line class="cls-2" x1="1160.5" y1="287.5" x2="936.8" y2="502.25"/>
      <path d="M1011.21,562a.74.74,0,0,1,.55.9L1009.05,574l11.25-2.25a.74.74,0,0,1,.88.58.75.75,0,0,1-.59.89l-12.4,2.49a.77.77,0,0,1-.69-.22.75.75,0,0,1-.19-.7l3-12.29a.77.77,0,0,1,.21-.36A.74.74,0,0,1,1011.21,562Z" transform="translate(-72 -72)"/>
    </g>
    <g>
      <line class="cls-2" x1="1187.5" y1="287.5" x2="1116.07" y2="501.79"/>
      <path d="M1184.48,561.79a.75.75,0,0,1,.91.54l2.79,11.13,8.91-7.23a.75.75,0,0,1,1.05.11.76.76,0,0,1-.11,1.06l-9.82,8a.76.76,0,0,1-.71.13.75.75,0,0,1-.49-.53l-3.07-12.27a.75.75,0,0,1,0-.42A.73.73,0,0,1,1184.48,561.79Z" transform="translate(-72 -72)"/>
    </g>
    <g>
      <line class="cls-2" x1="1250.5" y1="287.5" x2="1510.11" y2="502.35"/>
      <path d="M1569.62,573.36a.75.75,0,0,1,.84-.65l11.39,1.42-3.53-10.92a.74.74,0,0,1,.48-.94.75.75,0,0,1,1,.48l3.89,12a.79.79,0,0,1-.14.71.75.75,0,0,1-.67.27l-12.56-1.57a.77.77,0,0,1-.65-.84Z" transform="translate(-72 -72)"/>
    </g>
    <g>
      <line class="cls-2" x1="1223.5" y1="287.5" x2="1294.93" y2="501.79"/>
      <path d="M1356.86,566.34a.75.75,0,0,1,1.05-.11l8.91,7.23,2.79-11.13a.75.75,0,1,1,1.45.37L1368,575a.75.75,0,0,1-.49.53.76.76,0,0,1-.71-.13l-9.82-8a.76.76,0,0,1-.11-1.06Z" transform="translate(-72 -72)"/>
    </g>
    <g>
      <path d="M1463.42,624.05v2.37h-2.37v-2.37Z" transform="translate(-72 -72)"/>
      <path d="M1477.18,624.05v2.37h-2.38v-2.37Z" transform="translate(-72 -72)"/>
      <path d="M1490.93,624.05v2.37h-2.38v-2.37Z" transform="translate(-72 -72)"/>
    </g>
    <g>
      <path d="M1233.67,103.8a5.47,5.47,0,0,0-1.13-2.11,5.23,5.23,0,0,0-4.15-1.73c-3.89,0-6.33,3-6.33,7.75s2.47,7.78,6.33,7.78a5.45,5.45,0,0,0,4.49-2,5.28,5.28,0,0,0,1-2.4l2,.48a7.73,7.73,0,0,1-1.29,2.86,7.46,7.46,0,0,1-6.22,2.78,7.63,7.63,0,0,1-5.61-2.11,11.54,11.54,0,0,1,.14-14.76,7.55,7.55,0,0,1,5.5-2,7.06,7.06,0,0,1,7.24,5Z" transform="translate(-72 -72)"/>
      <path d="M1238.11,110.4c0-4.15,2.5-6.79,6.41-6.79s6.39,2.64,6.39,6.77-2.5,6.79-6.37,6.79S1238.11,114.55,1238.11,110.4Zm1.85-.05c0,3.27,1.75,5.26,4.56,5.26s4.54-2,4.54-5.23-1.73-5.26-4.49-5.26S1240,107.11,1240,110.35Z" transform="translate(-72 -72)"/>
      <path d="M1253.71,116.86a14.87,14.87,0,0,0,.19-2.72v-7.51a15.58,15.58,0,0,0-.19-2.71h2v1.63a5.76,5.76,0,0,1-.08,1,5.21,5.21,0,0,1,4.85-2.9,4.32,4.32,0,0,1,3.84,1.8,4.86,4.86,0,0,1,.67,2.76v5.93a16.37,16.37,0,0,0,.17,2.69H1263a19.46,19.46,0,0,0,.17-2.72v-5.59c0-2.16-1-3.31-2.93-3.31a4.18,4.18,0,0,0-3.43,1.9,5,5,0,0,0-1.1,2.37v4.63a19.52,19.52,0,0,0,.16,2.72Z" transform="translate(-72 -72)"/>
      <path d="M1272.22,100.34a17.36,17.36,0,0,0-.17,2.67v.91h1.15a13.74,13.74,0,0,0,2.45-.15v1.83a14.5,14.5,0,0,0-2.45-.14h-1.15v8.35c0,.69.09,1,.31,1.27a1.64,1.64,0,0,0,1.18.41,3.33,3.33,0,0,0,1.89-.63l.53,1.68a6.43,6.43,0,0,1-2.71.56,3.27,3.27,0,0,1-2.35-.75,3,3,0,0,1-.68-2.3v-8.59h-1a15.57,15.57,0,0,0-2.16.14v-1.83a10.2,10.2,0,0,0,2.16.15h1V103a18.34,18.34,0,0,0-.16-2.67Z" transform="translate(-72 -72)"/>
      <path d="M1285.73,105.77a5.66,5.66,0,0,0-1.94-.36,3.55,3.55,0,0,0-3,1.46,4,4,0,0,0-.89,2.4v4.9a18.83,18.83,0,0,0,.17,2.69H1278a22,22,0,0,0,.17-2.72v-7.51a17.3,17.3,0,0,0-.17-2.71h2v1.37c0,.19,0,.55,0,.72a4.29,4.29,0,0,1,1.32-1.47,4.78,4.78,0,0,1,2.88-.84,11,11,0,0,1,2.14.22Z" transform="translate(-72 -72)"/>
      <path d="M1287.67,110.4c0-4.15,2.5-6.79,6.41-6.79s6.38,2.64,6.38,6.77-2.49,6.79-6.36,6.79S1287.67,114.55,1287.67,110.4Zm1.85-.05c0,3.27,1.75,5.26,4.56,5.26s4.54-2,4.54-5.23-1.73-5.26-4.49-5.26S1289.52,107.11,1289.52,110.35Z" transform="translate(-72 -72)"/>
      <path d="M1305.43,98.61a17.53,17.53,0,0,0-.17,2.72v12.84a19,19,0,0,0,.17,2.69h-2.16a18.17,18.17,0,0,0,.17-2.69V101.3a17.37,17.37,0,0,0-.17-2.69Z" transform="translate(-72 -72)"/>
      <path d="M1311,98.61a17.53,17.53,0,0,0-.17,2.72v12.84a19,19,0,0,0,.17,2.69h-2.16a18.17,18.17,0,0,0,.17-2.69V101.3a17.37,17.37,0,0,0-.17-2.69Z" transform="translate(-72 -72)"/>
      <path d="M1315.63,110.66a5.4,5.4,0,0,0,1,3.36,4,4,0,0,0,3.39,1.64,3.93,3.93,0,0,0,4-2.81l1.68.67a5.77,5.77,0,0,1-1.32,2,6,6,0,0,1-4.35,1.68c-3.77,0-6.14-2.64-6.14-6.79s2.35-6.79,6-6.79a5.67,5.67,0,0,1,5.81,5.21c0,.26.12,1.2.17,1.84Zm8.19-1.51a4.4,4.4,0,0,0-1.28-3,3.89,3.89,0,0,0-2.83-1.08,3.76,3.76,0,0,0-3.41,2.09,5.22,5.22,0,0,0-.6,1.94Z" transform="translate(-72 -72)"/>
      <path d="M1336.3,105.77a5.7,5.7,0,0,0-2-.36,3.54,3.54,0,0,0-2.95,1.46,4,4,0,0,0-.89,2.4v4.9a18.83,18.83,0,0,0,.17,2.69h-2.16a22,22,0,0,0,.17-2.72v-7.51a17.3,17.3,0,0,0-.17-2.71h2v1.37c0,.19,0,.55,0,.72a4.1,4.1,0,0,1,1.32-1.47,4.78,4.78,0,0,1,2.88-.84,10.8,10.8,0,0,1,2.13.22Z" transform="translate(-72 -72)"/>
    </g>
    <g>
      <path d="M1246.77,319.34a4,4,0,0,0-.84-2,4.48,4.48,0,0,0-3.56-1.39c-2.47,0-4.2,1.32-4.2,3.26a2.85,2.85,0,0,0,2.09,2.72,18.15,18.15,0,0,0,3.43.86c3.84.82,5.38,2.28,5.38,5.06,0,3.39-2.33,5.31-6.46,5.31-2.68,0-4.68-.79-5.78-2.28a6.24,6.24,0,0,1-1.13-3.17l2.09-.26a3.74,3.74,0,0,0,.74,2.37,4.87,4.87,0,0,0,4,1.66c2.86,0,4.59-1.35,4.59-3.58a2.75,2.75,0,0,0-1.4-2.57c-.79-.45-1-.52-4-1.17a11,11,0,0,1-3.26-1.11,4.09,4.09,0,0,1-2.23-3.79c0-3,2.42-5,6.14-5a6.33,6.33,0,0,1,5.31,2.21,5.52,5.52,0,0,1,1,2.54Z" transform="translate(-72 -72)"/>
      <path d="M1253.37,326.66a5.47,5.47,0,0,0,1,3.36,4,4,0,0,0,3.39,1.64,3.92,3.92,0,0,0,4-2.81l1.68.67a5.77,5.77,0,0,1-1.32,2,6,6,0,0,1-4.34,1.68c-3.77,0-6.15-2.64-6.15-6.79s2.35-6.79,6-6.79a5.67,5.67,0,0,1,5.81,5.21c0,.26.12,1.2.17,1.84Zm8.18-1.51a4.39,4.39,0,0,0-1.27-2.95,3.9,3.9,0,0,0-2.83-1.08,3.74,3.74,0,0,0-3.41,2.09,4.88,4.88,0,0,0-.6,1.94Z" transform="translate(-72 -72)"/>
      <path d="M1274,321.77a5.63,5.63,0,0,0-2-.36,3.54,3.54,0,0,0-2.95,1.46,4,4,0,0,0-.89,2.4v4.9a18.83,18.83,0,0,0,.17,2.69h-2.16a22,22,0,0,0,.17-2.72v-7.51a17.3,17.3,0,0,0-.17-2.71h2v1.37c0,.19,0,.55,0,.72a4.29,4.29,0,0,1,1.32-1.47,4.78,4.78,0,0,1,2.88-.84,11,11,0,0,1,2.14.22Z" transform="translate(-72 -72)"/>
      <path d="M1277.39,319.92a13.17,13.17,0,0,0,.74,2.35l2.74,7.06c.12.31.38,1.08.53,1.56.19-.6.33-1,.55-1.54l2.74-7.08a11.21,11.21,0,0,0,.72-2.35h2.25c-.31.58-.38.77-1.17,2.64l-3.37,8.09a12,12,0,0,0-.76,2.21h-1.9a13.72,13.72,0,0,0-.79-2.21l-3.34-8.09c-.45-1.06-.69-1.58-1.2-2.64Z" transform="translate(-72 -72)"/>
      <path d="M1291.93,314.61v2.14h-2.33v-2.14Zm-.09,5.31a17.13,17.13,0,0,0-.17,2.71v7.51a19,19,0,0,0,.17,2.72h-2.16a21,21,0,0,0,.16-2.72v-7.51a17.7,17.7,0,0,0-.16-2.71Z" transform="translate(-72 -72)"/>
      <path d="M1304.53,323.88a3.62,3.62,0,0,0-3.62-2.76c-2.64,0-4.32,2.06-4.32,5.28s1.73,5.18,4.41,5.18a3.55,3.55,0,0,0,3.12-1.53,3.72,3.72,0,0,0,.53-1.23l1.8.48a6.34,6.34,0,0,1-1,1.85,5.54,5.54,0,0,1-4.54,2c-3.77,0-6.19-2.62-6.19-6.72s2.4-6.87,6.07-6.87a5.47,5.47,0,0,1,4.64,2.21,6.82,6.82,0,0,1,.84,1.54Z" transform="translate(-72 -72)"/>
      <path d="M1310.44,326.66a5.4,5.4,0,0,0,1,3.36,4,4,0,0,0,3.38,1.64,3.92,3.92,0,0,0,4-2.81l1.68.67a5.77,5.77,0,0,1-1.32,2,6,6,0,0,1-4.34,1.68c-3.77,0-6.15-2.64-6.15-6.79s2.35-6.79,6-6.79a5.67,5.67,0,0,1,5.81,5.21c0,.26.12,1.2.17,1.84Zm8.18-1.51a4.35,4.35,0,0,0-1.27-2.95,3.9,3.9,0,0,0-2.83-1.08,3.74,3.74,0,0,0-3.41,2.09,4.88,4.88,0,0,0-.6,1.94Z" transform="translate(-72 -72)"/>
    </g>
    <g>
      <path d="M957,620.87a14.16,14.16,0,0,0-1.24-3.59c-1.21-2.87-2-3.69-3.71-3.69H948.2v4.91a12.25,12.25,0,0,0,.17,2.37h-2a13.16,13.16,0,0,0,.17-2.35V607.27a15.85,15.85,0,0,0-.17-2.42c.73,0,1.32.07,2.29.07h4.62c3,0,4.72,1.42,4.72,4a3.81,3.81,0,0,1-1.26,3.09,4.33,4.33,0,0,1-2.27,1c.86.26,1.39.82,2.14,2.31.51,1,1,2.08,1.66,3.53a18,18,0,0,0,.95,2Zm-3.86-8.73a3.39,3.39,0,0,0,2.37-.9,2.77,2.77,0,0,0,.8-2.12c0-1.79-1.05-2.75-3.05-2.75h-5.1v5.77Z" transform="translate(-72 -72)"/>
      <path d="M962.61,615.46a4.74,4.74,0,0,0,.84,2.94,3.51,3.51,0,0,0,3,1.42,3.42,3.42,0,0,0,3.46-2.45l1.47.59a5.15,5.15,0,0,1-1.15,1.74,5.28,5.28,0,0,1-3.8,1.47c-3.3,0-5.38-2.31-5.38-5.94s2.06-6,5.21-6a5,5,0,0,1,5.08,4.56c0,.23.11,1,.15,1.62Zm7.16-1.33a3.86,3.86,0,0,0-1.11-2.58,3.42,3.42,0,0,0-2.48-.94,3.29,3.29,0,0,0-3,1.82,4.42,4.42,0,0,0-.53,1.7Z" transform="translate(-72 -72)"/>
      <path d="M973.89,625.28a18.09,18.09,0,0,0,.14-2.35V612a17.29,17.29,0,0,0-.14-2.41h1.68v1.19a7.56,7.56,0,0,1-.07.87,4.8,4.8,0,0,1,4.29-2.27c3.23,0,5.2,2.2,5.2,5.86s-2,5.85-5.16,5.85a5,5,0,0,1-4.33-2.22,10.54,10.54,0,0,1,.09,1.47v2.6a16.6,16.6,0,0,0,.14,2.37Zm9.47-10.07c0-2.86-1.35-4.5-3.7-4.5s-4,1.81-4,4.52a4.78,4.78,0,0,0,1.19,3.36,4.17,4.17,0,0,0,2.88,1.11C982,619.7,983.36,618,983.36,615.21Z" transform="translate(-72 -72)"/>
      <path d="M987,615.23c0-3.64,2.18-6,5.6-6s5.59,2.31,5.59,5.93-2.18,5.94-5.56,5.94S987,618.86,987,615.23Zm1.61-.05c0,2.86,1.54,4.6,4,4.6s4-1.74,4-4.57-1.51-4.6-3.92-4.6S988.56,612.35,988.56,615.18Z" transform="translate(-72 -72)"/>
      <path d="M1001.71,617.51a2.39,2.39,0,0,0,.74,1.54,3.55,3.55,0,0,0,2.43.73c1.83,0,3-.77,3-2a1.44,1.44,0,0,0-.65-1.31,6.73,6.73,0,0,0-2.48-.75,8,8,0,0,1-3.1-1.09,2.58,2.58,0,0,1-1.14-2.21,2.79,2.79,0,0,1,.91-2,4.55,4.55,0,0,1,3.27-1.1,4.86,4.86,0,0,1,3.3,1,3.41,3.41,0,0,1,1.11,1.91l-1.66.28a1.93,1.93,0,0,0-.52-1.12,2.91,2.91,0,0,0-2.19-.8c-1.53,0-2.62.78-2.62,1.9a1.28,1.28,0,0,0,.71,1.15,8,8,0,0,0,2.33.71c2,.47,2.71.72,3.34,1.2a2.76,2.76,0,0,1,1,2.18c0,2.1-1.78,3.41-4.66,3.41a4.94,4.94,0,0,1-4.16-1.64,4.23,4.23,0,0,1-.67-1.66Z" transform="translate(-72 -72)"/>
      <path d="M1013.89,604.92v1.87h-2v-1.87Zm-.08,4.64a14.34,14.34,0,0,0-.15,2.37v6.57a15.75,15.75,0,0,0,.15,2.37h-1.89a19.06,19.06,0,0,0,.14-2.37v-6.57a16.05,16.05,0,0,0-.14-2.37Z" transform="translate(-72 -72)"/>
      <path d="M1020.09,606.43a14.54,14.54,0,0,0-.15,2.33v.8h1a12.4,12.4,0,0,0,2.14-.13V611a12.07,12.07,0,0,0-2.14-.13h-1v7.31c0,.61.08.92.27,1.11a1.43,1.43,0,0,0,1,.36,2.91,2.91,0,0,0,1.66-.55l.46,1.47a5.59,5.59,0,0,1-2.37.48,2.87,2.87,0,0,1-2.06-.65,2.66,2.66,0,0,1-.59-2V610.9h-.84a13.24,13.24,0,0,0-1.89.13v-1.6a9.14,9.14,0,0,0,1.89.13h.84v-.8a16.68,16.68,0,0,0-.14-2.33Z" transform="translate(-72 -72)"/>
      <path d="M1024.58,615.23c0-3.64,2.18-6,5.61-6s5.58,2.31,5.58,5.93-2.18,5.94-5.56,5.94S1024.58,618.86,1024.58,615.23Zm1.62-.05c0,2.86,1.53,4.6,4,4.6s4-1.74,4-4.57-1.51-4.6-3.92-4.6S1026.2,612.35,1026.2,615.18Z" transform="translate(-72 -72)"/>
      <path d="M1045,611.17a5,5,0,0,0-1.7-.31,3.09,3.09,0,0,0-2.58,1.28,3.51,3.51,0,0,0-.78,2.1v4.28a15.65,15.65,0,0,0,.15,2.35h-1.89a20.1,20.1,0,0,0,.15-2.37v-6.57a15.72,15.72,0,0,0-.15-2.37H1040v1.19c0,.17,0,.49,0,.63a3.77,3.77,0,0,1,1.16-1.28,4.2,4.2,0,0,1,2.52-.73,9.33,9.33,0,0,1,1.86.19Z" transform="translate(-72 -72)"/>
      <path d="M1047.13,612c-.94-2.07-.94-2.07-1.15-2.45H1048a11.15,11.15,0,0,0,.71,2.22l3,7.06,2.71-7.06a10.47,10.47,0,0,0,.7-2.22h2c-.13.31-.48,1.13-1,2.45l-4.7,11.47a2.87,2.87,0,0,1-3,1.95,8,8,0,0,1-1.73-.23l.45-1.55a2.74,2.74,0,0,0,1.28.35,1.63,1.63,0,0,0,1.55-1.15l1-2.31Z" transform="translate(-72 -72)"/>
      <path d="M1060.78,604.81a9.63,9.63,0,0,0,1.75.11h1.32a11.14,11.14,0,0,0,1.74-.11,33.31,33.31,0,0,0-.19,3.49v10.2a12.91,12.91,0,0,0,.17,2.37h-2a13.79,13.79,0,0,0,.16-2.37V606.34h-1.13a13.36,13.36,0,0,0-1.83.13Z" transform="translate(-72 -72)"/>
    </g>
    <g>
      <path d="M1137,620.87a14.16,14.16,0,0,0-1.24-3.59c-1.21-2.87-2-3.69-3.71-3.69h-3.89v4.91a12.25,12.25,0,0,0,.17,2.37h-1.95a13.16,13.16,0,0,0,.17-2.35V607.27a15.85,15.85,0,0,0-.17-2.42c.73,0,1.32.07,2.29.07h4.62c3,0,4.72,1.42,4.72,4a3.81,3.81,0,0,1-1.26,3.09,4.33,4.33,0,0,1-2.27,1c.86.26,1.39.82,2.14,2.31.51,1,1,2.08,1.66,3.53a18,18,0,0,0,1,2Zm-3.86-8.73a3.39,3.39,0,0,0,2.37-.9,2.77,2.77,0,0,0,.8-2.12c0-1.79-1-2.75-3-2.75h-5.1v5.77Z" transform="translate(-72 -72)"/>
      <path d="M1142.61,615.46a4.74,4.74,0,0,0,.84,2.94,3.51,3.51,0,0,0,3,1.42,3.42,3.42,0,0,0,3.46-2.45l1.47.59a5.15,5.15,0,0,1-1.15,1.74,5.28,5.28,0,0,1-3.8,1.47c-3.3,0-5.38-2.31-5.38-5.94s2.06-6,5.21-6a5,5,0,0,1,5.08,4.56c0,.23.11,1,.15,1.62Zm7.16-1.33a3.86,3.86,0,0,0-1.11-2.58,3.42,3.42,0,0,0-2.48-.94,3.29,3.29,0,0,0-3,1.82,4.42,4.42,0,0,0-.53,1.7Z" transform="translate(-72 -72)"/>
      <path d="M1153.89,625.28a18.09,18.09,0,0,0,.14-2.35V612a17.29,17.29,0,0,0-.14-2.41h1.68v1.19a7.56,7.56,0,0,1-.07.87,4.8,4.8,0,0,1,4.29-2.27c3.23,0,5.2,2.2,5.2,5.86s-2,5.85-5.16,5.85a5,5,0,0,1-4.33-2.22,10.54,10.54,0,0,1,.09,1.47v2.6a16.6,16.6,0,0,0,.14,2.37Zm9.47-10.07c0-2.86-1.35-4.5-3.7-4.5s-4.05,1.81-4.05,4.52a4.78,4.78,0,0,0,1.19,3.36,4.17,4.17,0,0,0,2.88,1.11C1162,619.7,1163.36,618,1163.36,615.21Z" transform="translate(-72 -72)"/>
      <path d="M1167,615.23c0-3.64,2.18-6,5.6-6s5.59,2.31,5.59,5.93-2.18,5.94-5.56,5.94S1167,618.86,1167,615.23Zm1.61-.05c0,2.86,1.54,4.6,4,4.6s4-1.74,4-4.57-1.51-4.6-3.92-4.6S1168.56,612.35,1168.56,615.18Z" transform="translate(-72 -72)"/>
      <path d="M1181.71,617.51a2.39,2.39,0,0,0,.74,1.54,3.55,3.55,0,0,0,2.43.73c1.83,0,3-.77,3-2a1.44,1.44,0,0,0-.65-1.31,6.73,6.73,0,0,0-2.48-.75,8,8,0,0,1-3.1-1.09,2.58,2.58,0,0,1-1.14-2.21,2.79,2.79,0,0,1,.91-2,4.55,4.55,0,0,1,3.27-1.1,4.86,4.86,0,0,1,3.3,1,3.41,3.41,0,0,1,1.11,1.91l-1.66.28a1.93,1.93,0,0,0-.52-1.12,2.91,2.91,0,0,0-2.19-.8c-1.53,0-2.62.78-2.62,1.9a1.28,1.28,0,0,0,.71,1.15,8,8,0,0,0,2.33.71c2,.47,2.71.72,3.34,1.2a2.76,2.76,0,0,1,1,2.18c0,2.1-1.78,3.41-4.66,3.41a4.94,4.94,0,0,1-4.16-1.64,4.23,4.23,0,0,1-.67-1.66Z" transform="translate(-72 -72)"/>
      <path d="M1193.89,604.92v1.87h-2v-1.87Zm-.08,4.64a14.34,14.34,0,0,0-.15,2.37v6.57a15.75,15.75,0,0,0,.15,2.37h-1.89a19.06,19.06,0,0,0,.14-2.37v-6.57a16.05,16.05,0,0,0-.14-2.37Z" transform="translate(-72 -72)"/>
      <path d="M1200.09,606.43a14.54,14.54,0,0,0-.15,2.33v.8h1a12.4,12.4,0,0,0,2.14-.13V611a12.07,12.07,0,0,0-2.14-.13h-1v7.31c0,.61.08.92.27,1.11a1.43,1.43,0,0,0,1,.36,2.91,2.91,0,0,0,1.66-.55l.46,1.47a5.59,5.59,0,0,1-2.37.48,2.87,2.87,0,0,1-2.06-.65,2.66,2.66,0,0,1-.59-2V610.9h-.84a13.24,13.24,0,0,0-1.89.13v-1.6a9.14,9.14,0,0,0,1.89.13h.84v-.8a16.68,16.68,0,0,0-.14-2.33Z" transform="translate(-72 -72)"/>
      <path d="M1204.58,615.23c0-3.64,2.18-6,5.61-6s5.58,2.31,5.58,5.93-2.18,5.94-5.56,5.94S1204.58,618.86,1204.58,615.23Zm1.62-.05c0,2.86,1.53,4.6,4,4.6s4-1.74,4-4.57-1.51-4.6-3.92-4.6S1206.2,612.35,1206.2,615.18Z" transform="translate(-72 -72)"/>
      <path d="M1225,611.17a5,5,0,0,0-1.7-.31,3.09,3.09,0,0,0-2.58,1.28,3.51,3.51,0,0,0-.78,2.1v4.28a15.65,15.65,0,0,0,.15,2.35h-1.89a20.1,20.1,0,0,0,.15-2.37v-6.57a15.72,15.72,0,0,0-.15-2.37H1220v1.19c0,.17,0,.49,0,.63a3.77,3.77,0,0,1,1.16-1.28,4.2,4.2,0,0,1,2.52-.73,9.33,9.33,0,0,1,1.86.19Z" transform="translate(-72 -72)"/>
      <path d="M1227.13,612c-.94-2.07-.94-2.07-1.15-2.45H1228a11.15,11.15,0,0,0,.71,2.22l3,7.06,2.71-7.06a10.47,10.47,0,0,0,.7-2.22h2c-.13.31-.48,1.13-1,2.45l-4.7,11.47a2.87,2.87,0,0,1-3,1.95,8,8,0,0,1-1.73-.23l.45-1.55a2.74,2.74,0,0,0,1.28.35,1.63,1.63,0,0,0,1.55-1.15l1-2.31Z" transform="translate(-72 -72)"/>
      <path d="M1241,620.87a14.13,14.13,0,0,0-2.31.11,9.77,9.77,0,0,1,.61-2.77,9.21,9.21,0,0,1,2.73-3.61,28.57,28.57,0,0,1,3.21-2.31c2.08-1.41,2.77-2.33,2.77-3.61,0-1.6-1.34-2.63-3.48-2.63a3.46,3.46,0,0,0-3,1.37,4.34,4.34,0,0,0-.73,2.12l-1.76-.3a5.7,5.7,0,0,1,1.32-3,5.36,5.36,0,0,1,4.22-1.62c3.17,0,5.21,1.6,5.21,4.08a4.39,4.39,0,0,1-1.24,3,17,17,0,0,1-3.57,2.71,11.57,11.57,0,0,0-3,2.58,5.88,5.88,0,0,0-1.19,2.43h6.7a19.33,19.33,0,0,0,2.56-.14V621a24.72,24.72,0,0,0-2.59-.13Z" transform="translate(-72 -72)"/>
    </g>
    <g>
      <path d="M1317,620.87a14.16,14.16,0,0,0-1.24-3.59c-1.21-2.87-2-3.69-3.71-3.69h-3.89v4.91a12.25,12.25,0,0,0,.17,2.37h-1.95a13.16,13.16,0,0,0,.17-2.35V607.27a15.85,15.85,0,0,0-.17-2.42c.73,0,1.32.07,2.29.07h4.62c3,0,4.72,1.42,4.72,4a3.81,3.81,0,0,1-1.26,3.09,4.33,4.33,0,0,1-2.27,1c.86.26,1.39.82,2.14,2.31.51,1,1,2.08,1.66,3.53a18,18,0,0,0,1,2Zm-3.86-8.73a3.39,3.39,0,0,0,2.37-.9,2.77,2.77,0,0,0,.8-2.12c0-1.79-1-2.75-3-2.75h-5.1v5.77Z" transform="translate(-72 -72)"/>
      <path d="M1322.61,615.46a4.74,4.74,0,0,0,.84,2.94,3.51,3.51,0,0,0,3,1.42,3.42,3.42,0,0,0,3.46-2.45l1.47.59a5.15,5.15,0,0,1-1.15,1.74,5.28,5.28,0,0,1-3.8,1.47c-3.3,0-5.38-2.31-5.38-5.94s2.06-6,5.21-6a5,5,0,0,1,5.08,4.56c0,.23.11,1,.15,1.62Zm7.16-1.33a3.86,3.86,0,0,0-1.11-2.58,3.42,3.42,0,0,0-2.48-.94,3.29,3.29,0,0,0-3,1.82,4.42,4.42,0,0,0-.53,1.7Z" transform="translate(-72 -72)"/>
      <path d="M1333.89,625.28a18.09,18.09,0,0,0,.14-2.35V612a17.29,17.29,0,0,0-.14-2.41h1.68v1.19a7.56,7.56,0,0,1-.07.87,4.8,4.8,0,0,1,4.29-2.27c3.23,0,5.2,2.2,5.2,5.86s-2,5.85-5.16,5.85a5,5,0,0,1-4.33-2.22,10.54,10.54,0,0,1,.09,1.47v2.6a16.6,16.6,0,0,0,.14,2.37Zm9.47-10.07c0-2.86-1.35-4.5-3.7-4.5s-4.05,1.81-4.05,4.52a4.78,4.78,0,0,0,1.19,3.36,4.17,4.17,0,0,0,2.88,1.11C1342,619.7,1343.36,618,1343.36,615.21Z" transform="translate(-72 -72)"/>
      <path d="M1347,615.23c0-3.64,2.18-6,5.6-6s5.59,2.31,5.59,5.93-2.18,5.94-5.56,5.94S1347,618.86,1347,615.23Zm1.61-.05c0,2.86,1.54,4.6,4,4.6s4-1.74,4-4.57-1.51-4.6-3.92-4.6S1348.56,612.35,1348.56,615.18Z" transform="translate(-72 -72)"/>
      <path d="M1361.71,617.51a2.39,2.39,0,0,0,.74,1.54,3.55,3.55,0,0,0,2.43.73c1.83,0,3-.77,3-2a1.44,1.44,0,0,0-.65-1.31,6.73,6.73,0,0,0-2.48-.75,8,8,0,0,1-3.1-1.09,2.58,2.58,0,0,1-1.14-2.21,2.79,2.79,0,0,1,.91-2,4.55,4.55,0,0,1,3.27-1.1,4.86,4.86,0,0,1,3.3,1,3.41,3.41,0,0,1,1.11,1.91l-1.66.28a1.93,1.93,0,0,0-.52-1.12,2.91,2.91,0,0,0-2.19-.8c-1.53,0-2.62.78-2.62,1.9a1.28,1.28,0,0,0,.71,1.15,8,8,0,0,0,2.33.71c2,.47,2.71.72,3.34,1.2a2.76,2.76,0,0,1,1,2.18c0,2.1-1.78,3.41-4.66,3.41a4.94,4.94,0,0,1-4.16-1.64,4.23,4.23,0,0,1-.67-1.66Z" transform="translate(-72 -72)"/>
      <path d="M1373.89,604.92v1.87h-2v-1.87Zm-.08,4.64a14.34,14.34,0,0,0-.15,2.37v6.57a15.75,15.75,0,0,0,.15,2.37h-1.89a19.06,19.06,0,0,0,.14-2.37v-6.57a16.05,16.05,0,0,0-.14-2.37Z" transform="translate(-72 -72)"/>
      <path d="M1380.09,606.43a14.54,14.54,0,0,0-.15,2.33v.8h1a12.4,12.4,0,0,0,2.14-.13V611a12.07,12.07,0,0,0-2.14-.13h-1v7.31c0,.61.08.92.27,1.11a1.43,1.43,0,0,0,1,.36,2.91,2.91,0,0,0,1.66-.55l.46,1.47a5.59,5.59,0,0,1-2.37.48,2.87,2.87,0,0,1-2.06-.65,2.66,2.66,0,0,1-.59-2V610.9h-.84a13.24,13.24,0,0,0-1.89.13v-1.6a9.14,9.14,0,0,0,1.89.13h.84v-.8a16.68,16.68,0,0,0-.14-2.33Z" transform="translate(-72 -72)"/>
      <path d="M1384.58,615.23c0-3.64,2.18-6,5.61-6s5.58,2.31,5.58,5.93-2.18,5.94-5.56,5.94S1384.58,618.86,1384.58,615.23Zm1.62-.05c0,2.86,1.53,4.6,4,4.6s4-1.74,4-4.57-1.51-4.6-3.92-4.6S1386.2,612.35,1386.2,615.18Z" transform="translate(-72 -72)"/>
      <path d="M1405,611.17a5,5,0,0,0-1.7-.31,3.09,3.09,0,0,0-2.58,1.28,3.51,3.51,0,0,0-.78,2.1v4.28a15.65,15.65,0,0,0,.15,2.35h-1.89a20.1,20.1,0,0,0,.15-2.37v-6.57a15.72,15.72,0,0,0-.15-2.37H1400v1.19c0,.17,0,.49,0,.63a3.77,3.77,0,0,1,1.16-1.28,4.2,4.2,0,0,1,2.52-.73,9.33,9.33,0,0,1,1.86.19Z" transform="translate(-72 -72)"/>
      <path d="M1407.13,612c-.94-2.07-.94-2.07-1.15-2.45H1408a11.15,11.15,0,0,0,.71,2.22l3,7.06,2.71-7.06a10.47,10.47,0,0,0,.7-2.22h2c-.13.31-.48,1.13-1,2.45l-4.7,11.47a2.87,2.87,0,0,1-3,1.95,8,8,0,0,1-1.73-.23l.45-1.55a2.74,2.74,0,0,0,1.28.35,1.63,1.63,0,0,0,1.55-1.15l1-2.31Z" transform="translate(-72 -72)"/>
      <path d="M1420.11,617a3.18,3.18,0,0,0,1.28,2,4.61,4.61,0,0,0,2.71.76c2.44,0,4-1.26,4-3.25s-1.49-3.22-4.28-3.22a15.29,15.29,0,0,0-1.68.11v-1.66a9.25,9.25,0,0,0,1.55.13,4.19,4.19,0,0,0,3.06-1,2.86,2.86,0,0,0,.84-2c0-1.8-1.26-2.85-3.38-2.85a3.28,3.28,0,0,0-2.79,1.11,4,4,0,0,0-.67,1.49l-1.74-.38a4.79,4.79,0,0,1,1.13-2.1,5.49,5.49,0,0,1,4.18-1.53c3,0,5,1.6,5,4.12a3.69,3.69,0,0,1-1.47,3.06,4.34,4.34,0,0,1-2,.76,4.48,4.48,0,0,1,2.58.9,3.83,3.83,0,0,1,1.41,3.17c0,2.84-2.18,4.6-5.69,4.6a6,6,0,0,1-4.7-1.72,5.58,5.58,0,0,1-1.07-2Z" transform="translate(-72 -72)"/>
    </g>
    <g>
      <path d="M1531.81,620.87a14.16,14.16,0,0,0-1.24-3.59c-1.21-2.87-2-3.69-3.71-3.69H1523v4.91a13.1,13.1,0,0,0,.17,2.37h-2a12.29,12.29,0,0,0,.17-2.35V607.27a14.67,14.67,0,0,0-.17-2.42c.73,0,1.32.07,2.29.07h4.62c3,0,4.72,1.42,4.72,4a3.81,3.81,0,0,1-1.26,3.09,4.33,4.33,0,0,1-2.27,1c.86.26,1.39.82,2.15,2.31.5,1,1,2.08,1.65,3.53a20.08,20.08,0,0,0,1,2Zm-3.86-8.73a3.37,3.37,0,0,0,2.37-.9,2.77,2.77,0,0,0,.8-2.12c0-1.79-1-2.75-3-2.75H1523v5.77Z" transform="translate(-72 -72)"/>
      <path d="M1537.38,615.46a4.74,4.74,0,0,0,.84,2.94,3.51,3.51,0,0,0,3,1.42,3.42,3.42,0,0,0,3.46-2.45l1.48.59a5.15,5.15,0,0,1-1.16,1.74,5.28,5.28,0,0,1-3.8,1.47c-3.3,0-5.37-2.31-5.37-5.94s2-6,5.2-6a5,5,0,0,1,5.08,4.56c0,.23.11,1,.15,1.62Zm7.16-1.33a3.86,3.86,0,0,0-1.11-2.58,3.4,3.4,0,0,0-2.48-.94,3.29,3.29,0,0,0-3,1.82,4.42,4.42,0,0,0-.53,1.7Z" transform="translate(-72 -72)"/>
      <path d="M1548.66,625.28a18.09,18.09,0,0,0,.14-2.35V612a17.29,17.29,0,0,0-.14-2.41h1.68v1.19a5.83,5.83,0,0,1-.07.87,4.8,4.8,0,0,1,4.29-2.27c3.23,0,5.2,2.2,5.2,5.86s-2,5.85-5.16,5.85a5,5,0,0,1-4.33-2.22,10.54,10.54,0,0,1,.09,1.47v2.6a15.15,15.15,0,0,0,.15,2.37Zm9.47-10.07c0-2.86-1.35-4.5-3.7-4.5s-4,1.81-4,4.52a4.74,4.74,0,0,0,1.2,3.36,4.13,4.13,0,0,0,2.87,1.11C1556.74,619.7,1558.13,618,1558.13,615.21Z" transform="translate(-72 -72)"/>
      <path d="M1561.72,615.23c0-3.64,2.18-6,5.61-6s5.58,2.31,5.58,5.93-2.18,5.94-5.56,5.94S1561.72,618.86,1561.72,615.23Zm1.62-.05c0,2.86,1.53,4.6,4,4.6s4-1.74,4-4.57-1.51-4.6-3.92-4.6S1563.34,612.35,1563.34,615.18Z" transform="translate(-72 -72)"/>
      <path d="M1576.48,617.51a2.39,2.39,0,0,0,.74,1.54,3.55,3.55,0,0,0,2.43.73c1.83,0,3-.77,3-2a1.44,1.44,0,0,0-.65-1.31,6.73,6.73,0,0,0-2.47-.75,8.1,8.1,0,0,1-3.11-1.09,2.58,2.58,0,0,1-1.14-2.21,2.79,2.79,0,0,1,.91-2,4.56,4.56,0,0,1,3.27-1.1,4.86,4.86,0,0,1,3.3,1,3.36,3.36,0,0,1,1.11,1.91l-1.66.28a1.93,1.93,0,0,0-.52-1.12,2.89,2.89,0,0,0-2.19-.8c-1.53,0-2.62.78-2.62,1.9a1.28,1.28,0,0,0,.71,1.15,8,8,0,0,0,2.33.71c2,.47,2.71.72,3.34,1.2a2.76,2.76,0,0,1,1,2.18c0,2.1-1.78,3.41-4.66,3.41a4.94,4.94,0,0,1-4.16-1.64,4.23,4.23,0,0,1-.67-1.66Z" transform="translate(-72 -72)"/>
      <path d="M1588.66,604.92v1.87h-2v-1.87Zm-.08,4.64a14.34,14.34,0,0,0-.15,2.37v6.57a15.75,15.75,0,0,0,.15,2.37h-1.89a19.09,19.09,0,0,0,.15-2.37v-6.57a15.9,15.9,0,0,0-.15-2.37Z" transform="translate(-72 -72)"/>
      <path d="M1594.86,606.43a14.54,14.54,0,0,0-.15,2.33v.8h1a12.4,12.4,0,0,0,2.14-.13V611a12.07,12.07,0,0,0-2.14-.13h-1v7.31c0,.61.08.92.27,1.11a1.43,1.43,0,0,0,1,.36,2.91,2.91,0,0,0,1.66-.55l.46,1.47a5.59,5.59,0,0,1-2.37.48,2.89,2.89,0,0,1-2.06-.65,2.66,2.66,0,0,1-.59-2V610.9h-.84a13.24,13.24,0,0,0-1.89.13v-1.6a9.14,9.14,0,0,0,1.89.13h.84v-.8a16.68,16.68,0,0,0-.14-2.33Z" transform="translate(-72 -72)"/>
      <path d="M1599.35,615.23c0-3.64,2.19-6,5.61-6s5.58,2.31,5.58,5.93-2.18,5.94-5.56,5.94S1599.35,618.86,1599.35,615.23Zm1.62-.05c0,2.86,1.53,4.6,4,4.6s4-1.74,4-4.57-1.52-4.6-3.93-4.6S1601,612.35,1601,615.18Z" transform="translate(-72 -72)"/>
      <path d="M1619.8,611.17a5,5,0,0,0-1.7-.31,3.09,3.09,0,0,0-2.58,1.28,3.51,3.51,0,0,0-.78,2.1v4.28a17.1,17.1,0,0,0,.15,2.35H1613a18.17,18.17,0,0,0,.15-2.37v-6.57a14.5,14.5,0,0,0-.15-2.37h1.74v1.19c0,.17,0,.49,0,.63a3.77,3.77,0,0,1,1.16-1.28,4.22,4.22,0,0,1,2.52-.73,9.49,9.49,0,0,1,1.87.19Z" transform="translate(-72 -72)"/>
      <path d="M1621.91,612c-1-2.07-1-2.07-1.16-2.45h2.06a11.84,11.84,0,0,0,.71,2.22l3,7.06,2.71-7.06a10.3,10.3,0,0,0,.69-2.22h2c-.13.31-.48,1.13-1,2.45l-4.7,11.47a2.87,2.87,0,0,1-3,1.95,7.89,7.89,0,0,1-1.72-.23l.44-1.55a2.77,2.77,0,0,0,1.28.35,1.62,1.62,0,0,0,1.55-1.15l1-2.31Z" transform="translate(-72 -72)"/>
      <path d="M1636,604.92a11.24,11.24,0,0,0,1.07,1.89l6.63,9.93c.23.35.86,1.38,1.37,2.29-.09-1.68-.13-2.61-.13-2.8v-8.9a12.83,12.83,0,0,0-.17-2.41h2a12.69,12.69,0,0,0-.17,2.41v11.19a11.65,11.65,0,0,0,.17,2.35h-2.29a17.31,17.31,0,0,0-1.09-1.89l-6.74-10.12c-.17-.25-.86-1.44-1.16-2,.09,1,.13,2,.13,2.56v9a13,13,0,0,0,.17,2.49h-2a13,13,0,0,0,.17-2.49V607.27a12.69,12.69,0,0,0-.17-2.35Z" transform="translate(-72 -72)"/>
    </g>
    <polygon points="1276.2 153 1243.8 153 1260 180 1276.2 153"/>
    <g>
      <path d="M1319.53,179.61a14.93,14.93,0,0,0-.19,2.72v8.9a7.16,7.16,0,0,1-1.85,5.11,7.48,7.48,0,0,1-5.45,1.9,7.35,7.35,0,0,1-5.47-1.94,7.13,7.13,0,0,1-1.77-5.07v-8.86a14.31,14.31,0,0,0-.2-2.76h2.26a14.44,14.44,0,0,0-.19,2.76v8.79c0,3.46,2,5.42,5.4,5.42a5.37,5.37,0,0,0,4.2-1.6,6,6,0,0,0,1.2-3.82v-8.79a15.41,15.41,0,0,0-.19-2.76Z" transform="translate(-72 -72)"/>
      <path d="M1324.31,194a2.71,2.71,0,0,0,.84,1.75,4.07,4.07,0,0,0,2.78.84c2.09,0,3.41-.89,3.41-2.31a1.61,1.61,0,0,0-.74-1.48,7.74,7.74,0,0,0-2.84-.87,9.06,9.06,0,0,1-3.55-1.25,2.93,2.93,0,0,1-1.29-2.52,3.23,3.23,0,0,1,1-2.33,5.27,5.27,0,0,1,3.74-1.24,5.52,5.52,0,0,1,3.77,1.15,3.89,3.89,0,0,1,1.27,2.18l-1.89.32a2.29,2.29,0,0,0-.6-1.28,3.3,3.3,0,0,0-2.5-.91c-1.75,0-3,.89-3,2.16a1.48,1.48,0,0,0,.82,1.32,8.84,8.84,0,0,0,2.66.82c2.33.53,3.1.81,3.82,1.37a3.17,3.17,0,0,1,1.15,2.49c0,2.4-2,3.89-5.33,3.89-2.18,0-3.86-.65-4.75-1.87a4.76,4.76,0,0,1-.77-1.9Z" transform="translate(-72 -72)"/>
      <path d="M1337.15,191.66a5.4,5.4,0,0,0,1,3.36,4,4,0,0,0,3.38,1.64,3.92,3.92,0,0,0,4-2.81l1.68.67a5.5,5.5,0,0,1-1.32,2,6,6,0,0,1-4.34,1.68c-3.77,0-6.15-2.64-6.15-6.79s2.36-6.79,6-6.79a5.66,5.66,0,0,1,5.8,5.21c0,.26.13,1.2.17,1.84Zm8.18-1.51a4.35,4.35,0,0,0-1.27-3,3.89,3.89,0,0,0-2.83-1.08,3.74,3.74,0,0,0-3.41,2.09,4.88,4.88,0,0,0-.6,1.94Z" transform="translate(-72 -72)"/>
      <path d="M1351.31,194a2.71,2.71,0,0,0,.84,1.75,4.07,4.07,0,0,0,2.78.84c2.09,0,3.41-.89,3.41-2.31a1.61,1.61,0,0,0-.74-1.48,7.74,7.74,0,0,0-2.84-.87,9.06,9.06,0,0,1-3.55-1.25,2.93,2.93,0,0,1-1.29-2.52,3.23,3.23,0,0,1,1-2.33,5.27,5.27,0,0,1,3.74-1.24,5.52,5.52,0,0,1,3.77,1.15,3.89,3.89,0,0,1,1.27,2.18l-1.89.32a2.29,2.29,0,0,0-.6-1.28,3.3,3.3,0,0,0-2.5-.91c-1.75,0-3,.89-3,2.16a1.48,1.48,0,0,0,.82,1.32,8.84,8.84,0,0,0,2.66.82c2.33.53,3.1.81,3.82,1.37a3.17,3.17,0,0,1,1.15,2.49c0,2.4-2,3.89-5.33,3.89-2.18,0-3.86-.65-4.75-1.87a4.76,4.76,0,0,1-.77-1.9Z" transform="translate(-72 -72)"/>
    </g>
  </g>
</svg>
