<svg id="layers" xmlns="http://www.w3.org/2000/svg" viewBox="0 0 639.7 486.65">
  <defs>
    <style>
      .cls-1, .cls-3 {
        fill: #fff;
      }

      .cls-2 {
        fill: none;
      }

      .cls-2, .cls-3 {
        stroke: #000;
        stroke-miterlimit: 10;
      }
    </style>
  </defs>
  <title>spring-responsibilities</title>
  <rect class="cls-1" y="63.46" width="576" height="360"/>
  <g>
    <path d="M419.81,247.8a5.47,5.47,0,0,0-1.13-2.11,5.24,5.24,0,0,0-4.15-1.73c-3.89,0-6.34,3-6.34,7.75s2.47,7.78,6.34,7.78a5.48,5.48,0,0,0,4.49-2,5.4,5.4,0,0,0,1-2.4l2,.48a7.73,7.73,0,0,1-1.3,2.86,7.42,7.42,0,0,1-6.21,2.78,7.65,7.65,0,0,1-5.62-2.11,11.57,11.57,0,0,1,.14-14.76,7.62,7.62,0,0,1,5.5-2,7.06,7.06,0,0,1,7.25,5Z" transform="translate(-288 -80.54)"/>
    <path d="M424.25,254.4c0-4.15,2.49-6.79,6.41-6.79s6.38,2.64,6.38,6.77-2.5,6.79-6.36,6.79S424.25,258.55,424.25,254.4Zm1.85-.05c0,3.27,1.75,5.26,4.56,5.26s4.53-2,4.53-5.23-1.73-5.26-4.49-5.26S426.1,251.11,426.1,254.35Z" transform="translate(-288 -80.54)"/>
    <path d="M439.85,260.86a15.81,15.81,0,0,0,.19-2.72v-7.51a16.63,16.63,0,0,0-.19-2.71h2v1.63a6.56,6.56,0,0,1-.07,1,5.23,5.23,0,0,1,4.85-2.9,4.34,4.34,0,0,1,3.84,1.8,4.94,4.94,0,0,1,.67,2.76v5.93a16.37,16.37,0,0,0,.17,2.69h-2.16a19.46,19.46,0,0,0,.17-2.72v-5.59c0-2.16-1-3.31-2.93-3.31a4.18,4.18,0,0,0-3.44,1.9,5.11,5.11,0,0,0-1.1,2.37v4.63a19.46,19.46,0,0,0,.17,2.72Z" transform="translate(-288 -80.54)"/>
    <path d="M458.35,244.34a17.45,17.45,0,0,0-.17,2.67v.91h1.16a14.72,14.72,0,0,0,2.44-.14v1.82a14.31,14.31,0,0,0-2.44-.14h-1.16v8.35a1.72,1.72,0,0,0,.32,1.27,1.63,1.63,0,0,0,1.17.41,3.33,3.33,0,0,0,1.9-.63l.53,1.68a6.47,6.47,0,0,1-2.72.56,3.29,3.29,0,0,1-2.35-.75,3,3,0,0,1-.67-2.3v-8.59h-1a15.37,15.37,0,0,0-2.16.14v-1.82a10.9,10.9,0,0,0,2.16.14h1V247a18.36,18.36,0,0,0-.17-2.67Z" transform="translate(-288 -80.54)"/>
    <path d="M471.86,249.77a5.62,5.62,0,0,0-1.94-.36,3.54,3.54,0,0,0-2.95,1.46,4,4,0,0,0-.89,2.4v4.9a18.83,18.83,0,0,0,.17,2.69h-2.16a22,22,0,0,0,.17-2.72v-7.51a17.3,17.3,0,0,0-.17-2.71h2v1.37c0,.19,0,.55,0,.72a4.1,4.1,0,0,1,1.32-1.47,4.76,4.76,0,0,1,2.88-.84,10.87,10.87,0,0,1,2.13.22Z" transform="translate(-288 -80.54)"/>
    <path d="M473.81,254.4c0-4.15,2.49-6.79,6.41-6.79s6.38,2.64,6.38,6.77-2.5,6.79-6.36,6.79S473.81,258.55,473.81,254.4Zm1.85-.05c0,3.27,1.75,5.26,4.56,5.26s4.53-2,4.53-5.23-1.73-5.26-4.49-5.26S475.66,251.11,475.66,254.35Z" transform="translate(-288 -80.54)"/>
    <path d="M491.57,242.61a17.53,17.53,0,0,0-.17,2.72v12.84a19,19,0,0,0,.17,2.69h-2.16a18.17,18.17,0,0,0,.17-2.69V245.3a17.37,17.37,0,0,0-.17-2.69Z" transform="translate(-288 -80.54)"/>
    <path d="M497.14,242.61a17.53,17.53,0,0,0-.17,2.72v12.84a19,19,0,0,0,.17,2.69H495a18.27,18.27,0,0,0,.16-2.69V245.3a17.5,17.5,0,0,0-.16-2.69Z" transform="translate(-288 -80.54)"/>
    <path d="M501.77,254.66a5.4,5.4,0,0,0,1,3.36,4,4,0,0,0,3.38,1.64,3.92,3.92,0,0,0,4-2.81l1.68.67a5.64,5.64,0,0,1-1.32,2,6,6,0,0,1-4.34,1.68c-3.77,0-6.15-2.64-6.15-6.79s2.36-6.79,6-6.79a5.67,5.67,0,0,1,5.8,5.21c0,.26.12,1.2.17,1.84Zm8.18-1.51a4.35,4.35,0,0,0-1.27-3,3.89,3.89,0,0,0-2.83-1.08,3.74,3.74,0,0,0-3.41,2.09,4.88,4.88,0,0,0-.6,1.94Z" transform="translate(-288 -80.54)"/>
    <path d="M522.43,249.77a5.62,5.62,0,0,0-1.94-.36,3.53,3.53,0,0,0-3,1.46,3.91,3.91,0,0,0-.89,2.4v4.9a18.83,18.83,0,0,0,.17,2.69h-2.16a21.94,21.94,0,0,0,.16-2.72v-7.51a17.45,17.45,0,0,0-.16-2.71h2v1.37a5.62,5.62,0,0,1,0,.72,4.29,4.29,0,0,1,1.32-1.47,4.8,4.8,0,0,1,2.88-.84,11,11,0,0,1,2.14.22Z" transform="translate(-288 -80.54)"/>
  </g>
  <g>
    <path d="M435.39,319.34a3.94,3.94,0,0,0-.85-2A4.44,4.44,0,0,0,431,316c-2.47,0-4.2,1.32-4.2,3.26a2.83,2.83,0,0,0,2.09,2.72,18.15,18.15,0,0,0,3.43.86c3.84.82,5.38,2.28,5.38,5.06,0,3.39-2.33,5.31-6.46,5.31-2.69,0-4.68-.79-5.78-2.28a6.15,6.15,0,0,1-1.13-3.17l2.09-.26a3.74,3.74,0,0,0,.74,2.37,4.85,4.85,0,0,0,4,1.66c2.86,0,4.59-1.35,4.59-3.58a2.75,2.75,0,0,0-1.4-2.57c-.79-.45-1.05-.52-4-1.17a10.63,10.63,0,0,1-3.26-1.11,4.09,4.09,0,0,1-2.23-3.79c0-3,2.42-5,6.14-5a6.33,6.33,0,0,1,5.31,2.21,5.52,5.52,0,0,1,1,2.55Z" transform="translate(-288 -80.54)"/>
    <path d="M442,326.66a5.53,5.53,0,0,0,1,3.36,4,4,0,0,0,3.39,1.64,3.92,3.92,0,0,0,4-2.81l1.68.67a5.77,5.77,0,0,1-1.32,2,6,6,0,0,1-4.35,1.68c-3.76,0-6.14-2.64-6.14-6.79s2.35-6.79,5.95-6.79a5.67,5.67,0,0,1,5.81,5.21c0,.26.12,1.2.17,1.84Zm8.19-1.51a4.44,4.44,0,0,0-1.27-2.95,3.91,3.91,0,0,0-2.84-1.08,3.74,3.74,0,0,0-3.4,2.09,4.88,4.88,0,0,0-.6,1.94Z" transform="translate(-288 -80.54)"/>
    <path d="M462.65,321.77a5.67,5.67,0,0,0-1.95-.36,3.54,3.54,0,0,0-2.95,1.46,4,4,0,0,0-.89,2.4v4.9a18.83,18.83,0,0,0,.17,2.69h-2.16a22,22,0,0,0,.17-2.72v-7.51a17.3,17.3,0,0,0-.17-2.71h2v1.37c0,.19,0,.55,0,.72a4.29,4.29,0,0,1,1.32-1.47,4.78,4.78,0,0,1,2.88-.84,11,11,0,0,1,2.14.22Z" transform="translate(-288 -80.54)"/>
    <path d="M466,319.92a12.92,12.92,0,0,0,.74,2.35l2.74,7.06c.12.31.38,1.08.53,1.56.19-.6.33-1,.55-1.54l2.73-7.08a10.63,10.63,0,0,0,.72-2.35h2.26c-.31.58-.38.77-1.18,2.64l-3.36,8.09a11.25,11.25,0,0,0-.76,2.21h-1.9a13.72,13.72,0,0,0-.79-2.21L465,322.56c-.45-1.06-.69-1.58-1.2-2.64Z" transform="translate(-288 -80.54)"/>
    <path d="M480.55,314.61v2.14h-2.33v-2.14Zm-.09,5.31a17.13,17.13,0,0,0-.17,2.71v7.51a19,19,0,0,0,.17,2.72h-2.17a19.38,19.38,0,0,0,.17-2.72v-7.51a16.39,16.39,0,0,0-.17-2.71Z" transform="translate(-288 -80.54)"/>
    <path d="M493.15,323.88a3.62,3.62,0,0,0-3.62-2.76c-2.64,0-4.32,2.06-4.32,5.28s1.73,5.18,4.41,5.18a3.55,3.55,0,0,0,3.12-1.53,3.94,3.94,0,0,0,.53-1.23l1.8.48a6.34,6.34,0,0,1-1,1.85,5.54,5.54,0,0,1-4.54,2c-3.77,0-6.19-2.62-6.19-6.72s2.4-6.87,6.07-6.87a5.44,5.44,0,0,1,4.63,2.21,6.11,6.11,0,0,1,.84,1.54Z" transform="translate(-288 -80.54)"/>
    <path d="M499.05,326.66a5.53,5.53,0,0,0,1,3.36,4,4,0,0,0,3.39,1.64,3.92,3.92,0,0,0,4-2.81l1.68.67a5.77,5.77,0,0,1-1.32,2,6,6,0,0,1-4.34,1.68c-3.77,0-6.15-2.64-6.15-6.79s2.35-6.79,5.95-6.79a5.67,5.67,0,0,1,5.81,5.21c0,.26.12,1.2.17,1.84Zm8.19-1.51A4.35,4.35,0,0,0,506,322.2a3.9,3.9,0,0,0-2.83-1.08,3.74,3.74,0,0,0-3.41,2.09,4.88,4.88,0,0,0-.6,1.94Z" transform="translate(-288 -80.54)"/>
  </g>
  <g>
    <path d="M419,404.86a16.89,16.89,0,0,0-1.41-4.11c-1.39-3.29-2.33-4.22-4.25-4.22h-4.44v5.61a14.93,14.93,0,0,0,.19,2.72h-2.23a15,15,0,0,0,.19-2.69V389.3a17.68,17.68,0,0,0-.19-2.76c.84,0,1.51.07,2.61.07h5.28c3.49,0,5.41,1.64,5.41,4.61a4.34,4.34,0,0,1-1.44,3.53,4.93,4.93,0,0,1-2.6,1.2c1,.29,1.59.94,2.45,2.64.58,1.13,1.15,2.38,1.9,4a21.86,21.86,0,0,0,1.08,2.24Zm-4.41-10a3.82,3.82,0,0,0,2.71-1,3.17,3.17,0,0,0,.91-2.42c0-2-1.2-3.15-3.48-3.15h-5.83v6.6Z" transform="translate(-288 -80.54)"/>
    <path d="M425.35,398.66a5.4,5.4,0,0,0,1,3.36,4,4,0,0,0,3.39,1.64,3.93,3.93,0,0,0,4-2.81l1.68.67a5.77,5.77,0,0,1-1.32,2,6,6,0,0,1-4.35,1.68c-3.77,0-6.14-2.64-6.14-6.79s2.35-6.79,6-6.79a5.67,5.67,0,0,1,5.81,5.21c0,.26.12,1.2.17,1.84Zm8.19-1.51a4.4,4.4,0,0,0-1.28-2.95,3.89,3.89,0,0,0-2.83-1.08,3.76,3.76,0,0,0-3.41,2.09,5.22,5.22,0,0,0-.6,1.94Z" transform="translate(-288 -80.54)"/>
    <path d="M438.24,409.9a19.82,19.82,0,0,0,.17-2.69V394.68a18.9,18.9,0,0,0-.17-2.76h1.92v1.37a7.49,7.49,0,0,1-.07,1,5.49,5.49,0,0,1,4.89-2.59c3.7,0,6,2.52,6,6.7s-2.31,6.69-5.91,6.69a5.73,5.73,0,0,1-4.94-2.54,13.72,13.72,0,0,1,.09,1.68v3a18.33,18.33,0,0,0,.17,2.72Zm10.82-11.52c0-3.27-1.53-5.14-4.22-5.14s-4.63,2.06-4.63,5.16a5.4,5.4,0,0,0,1.37,3.84,4.71,4.71,0,0,0,3.28,1.27C447.48,403.51,449.06,401.57,449.06,398.38Z" transform="translate(-288 -80.54)"/>
    <path d="M453.17,398.4c0-4.15,2.49-6.79,6.41-6.79s6.38,2.64,6.38,6.77-2.5,6.79-6.36,6.79S453.17,402.55,453.17,398.4Zm1.85,0c0,3.27,1.75,5.26,4.56,5.26s4.53-2,4.53-5.23-1.73-5.26-4.49-5.26S455,395.11,455,398.35Z" transform="translate(-288 -80.54)"/>
    <path d="M470,401a2.71,2.71,0,0,0,.84,1.75,4.07,4.07,0,0,0,2.78.84c2.09,0,3.41-.89,3.41-2.31a1.61,1.61,0,0,0-.74-1.48,7.74,7.74,0,0,0-2.83-.87,9.12,9.12,0,0,1-3.56-1.25,2.93,2.93,0,0,1-1.29-2.52,3.19,3.19,0,0,1,1-2.32,5.24,5.24,0,0,1,3.74-1.25,5.5,5.5,0,0,1,3.77,1.15,3.84,3.84,0,0,1,1.27,2.18l-1.89.32A2.29,2.29,0,0,0,476,394a3.29,3.29,0,0,0-2.5-.91c-1.75,0-3,.89-3,2.16a1.48,1.48,0,0,0,.82,1.32,9.15,9.15,0,0,0,2.66.82c2.33.53,3.1.81,3.82,1.37a3.17,3.17,0,0,1,1.15,2.49c0,2.4-2,3.89-5.33,3.89-2.18,0-3.86-.65-4.75-1.87a4.76,4.76,0,0,1-.77-1.9Z" transform="translate(-288 -80.54)"/>
    <path d="M484,386.61v2.14h-2.33v-2.14Zm-.1,5.31a17.28,17.28,0,0,0-.16,2.71v7.51a19.06,19.06,0,0,0,.16,2.72H481.7a21,21,0,0,0,.17-2.72v-7.51a17.56,17.56,0,0,0-.17-2.71Z" transform="translate(-288 -80.54)"/>
    <path d="M491,388.34a17.36,17.36,0,0,0-.17,2.67v.91H492a16,16,0,0,0,2.45-.14v1.82a14.5,14.5,0,0,0-2.45-.14h-1.15v8.35a1.77,1.77,0,0,0,.31,1.27,1.67,1.67,0,0,0,1.18.41,3.38,3.38,0,0,0,1.9-.63l.52,1.68a6.4,6.4,0,0,1-2.71.56,3.29,3.29,0,0,1-2.35-.75,3,3,0,0,1-.67-2.3v-8.59h-1a15.37,15.37,0,0,0-2.16.14v-1.82a11.72,11.72,0,0,0,2.16.14h1V391a18.26,18.26,0,0,0-.17-2.67Z" transform="translate(-288 -80.54)"/>
    <path d="M496.18,398.4c0-4.15,2.49-6.79,6.4-6.79s6.39,2.64,6.39,6.77-2.5,6.79-6.36,6.79S496.18,402.55,496.18,398.4Zm1.84,0c0,3.27,1.76,5.26,4.56,5.26s4.54-2,4.54-5.23-1.73-5.26-4.49-5.26S498,395.11,498,398.35Z" transform="translate(-288 -80.54)"/>
    <path d="M519.55,393.77a5.62,5.62,0,0,0-1.94-.36,3.53,3.53,0,0,0-3,1.46,3.91,3.91,0,0,0-.89,2.4v4.9a18.83,18.83,0,0,0,.17,2.69h-2.16a21.94,21.94,0,0,0,.16-2.72v-7.51a17.45,17.45,0,0,0-.16-2.71h2v1.37a5.62,5.62,0,0,1,0,.72,4.29,4.29,0,0,1,1.32-1.47,4.8,4.8,0,0,1,2.88-.84,11,11,0,0,1,2.14.22Z" transform="translate(-288 -80.54)"/>
    <path d="M522,394.73c-1.08-2.38-1.08-2.38-1.32-2.81H523a13.6,13.6,0,0,0,.82,2.54l3.48,8.07,3.1-8.07a11.48,11.48,0,0,0,.79-2.54h2.23c-.14.36-.55,1.29-1.18,2.81l-5.37,13.1a3.27,3.27,0,0,1-3.39,2.23,9.3,9.3,0,0,1-2-.26L522,408a3.07,3.07,0,0,0,1.46.41,1.85,1.85,0,0,0,1.78-1.32l1.1-2.64Z" transform="translate(-288 -80.54)"/>
  </g>
  <line class="cls-2" x1="72" y1="278.96" x2="431.17" y2="278.46"/>
  <line class="cls-2" x1="72" y1="206.46" x2="432" y2="206.46"/>
  <line class="cls-2" y1="135.46" x2="432" y2="135.46"/>
  <g>
    <path d="M422.71,474.14a15.29,15.29,0,0,0,.19,2.72h-2.25a14.79,14.79,0,0,0,.19-2.72V460.29H417.1a17.15,17.15,0,0,0-2.76.17v-2a17,17,0,0,0,2.73.16h9.36a17.17,17.17,0,0,0,2.84-.16v2a17.34,17.34,0,0,0-2.84-.17h-3.72Z" transform="translate(-288 -80.54)"/>
    <path d="M432.5,470.66a5.53,5.53,0,0,0,1,3.36,4,4,0,0,0,3.39,1.64,3.92,3.92,0,0,0,4-2.81l1.68.67a5.77,5.77,0,0,1-1.32,2,6,6,0,0,1-4.35,1.68c-3.76,0-6.14-2.64-6.14-6.79s2.35-6.79,5.95-6.79a5.67,5.67,0,0,1,5.81,5.21c0,.26.12,1.2.17,1.84Zm8.19-1.51a4.44,4.44,0,0,0-1.27-2.95,3.91,3.91,0,0,0-2.84-1.08,3.74,3.74,0,0,0-3.4,2.09,4.88,4.88,0,0,0-.6,1.94Z" transform="translate(-288 -80.54)"/>
    <path d="M445.39,476.86a18.14,18.14,0,0,0,.17-2.72v-7.51a17.3,17.3,0,0,0-.17-2.71h1.95v1.32c0,.12,0,.41,0,.86a4.85,4.85,0,0,1,.91-1.2,4.69,4.69,0,0,1,3.38-1.25,3.87,3.87,0,0,1,3.1,1.23,3.12,3.12,0,0,1,.74,1.39,4.72,4.72,0,0,1,4.44-2.62,4.16,4.16,0,0,1,3.51,1.47,4.86,4.86,0,0,1,.82,3.12v5.93a17,17,0,0,0,.16,2.69h-2.16a14.1,14.1,0,0,0,.17-2.72v-5.66c0-2.28-.84-3.27-2.76-3.27a3.58,3.58,0,0,0-3,1.76,5.11,5.11,0,0,0-.8,2.47v4.73a16.7,16.7,0,0,0,.17,2.69h-2.16a17.27,17.27,0,0,0,.17-2.72v-5.66c0-2.11-1-3.27-2.69-3.27a3.75,3.75,0,0,0-3.14,1.83,5.4,5.4,0,0,0-.79,2.4v4.7a19.24,19.24,0,0,0,.16,2.72Z" transform="translate(-288 -80.54)"/>
    <path d="M467.74,481.9a19.84,19.84,0,0,0,.16-2.69V466.68a19,19,0,0,0-.16-2.76h1.92v1.37a7.69,7.69,0,0,1-.08,1,5.5,5.5,0,0,1,4.9-2.59c3.7,0,5.95,2.52,5.95,6.7s-2.3,6.69-5.9,6.69a5.74,5.74,0,0,1-4.95-2.54,12,12,0,0,1,.1,1.68v3a18.33,18.33,0,0,0,.17,2.72Zm10.82-11.52c0-3.27-1.54-5.14-4.22-5.14s-4.64,2.06-4.64,5.16a5.44,5.44,0,0,0,1.37,3.84,4.71,4.71,0,0,0,3.29,1.27C477,475.51,478.56,473.57,478.56,470.38Z" transform="translate(-288 -80.54)"/>
    <path d="M485.42,458.61a17.67,17.67,0,0,0-.16,2.72v12.84a19.08,19.08,0,0,0,.16,2.69h-2.16a18.17,18.17,0,0,0,.17-2.69V461.3a17.37,17.37,0,0,0-.17-2.69Z" transform="translate(-288 -80.54)"/>
    <path d="M497.38,475.15a6.49,6.49,0,0,1-2.21,1.47,7.15,7.15,0,0,1-2.5.48c-2.64,0-4.25-1.37-4.25-3.65,0-1.92,1.2-3.32,3.44-3.94a19.41,19.41,0,0,1,5.52-.62V467.5c0-1.64-1-2.48-3-2.48a3.94,3.94,0,0,0-3,1,3.35,3.35,0,0,0-.75,1.4l-1.87-.41a4.72,4.72,0,0,1,1.34-2.14,6.08,6.08,0,0,1,4.23-1.37c3.17,0,4.8,1.35,4.8,3.94v6.75a15.76,15.76,0,0,0,.19,2.64h-1.94Zm0-4.85c-2.86.08-4.23.24-5.31.7a2.55,2.55,0,0,0-1.82,2.47c0,1.32,1,2.16,2.54,2.16a5.42,5.42,0,0,0,3.84-1.7,2.64,2.64,0,0,0,.75-2.07Z" transform="translate(-288 -80.54)"/>
    <path d="M506.3,460.34a17.47,17.47,0,0,0-.16,2.67v.91h1.15a14.74,14.74,0,0,0,2.45-.15v1.83a14.5,14.5,0,0,0-2.45-.14h-1.15v8.35c0,.69.09,1.05.31,1.27a1.63,1.63,0,0,0,1.17.41,3.33,3.33,0,0,0,1.9-.63l.53,1.68a6.46,6.46,0,0,1-2.71.56,3.3,3.3,0,0,1-2.36-.75,3,3,0,0,1-.67-2.3v-8.59h-1a15.37,15.37,0,0,0-2.16.14v-1.83a10.79,10.79,0,0,0,2.16.15h1V463a18.26,18.26,0,0,0-.17-2.67Z" transform="translate(-288 -80.54)"/>
    <path d="M513.26,470.66a5.53,5.53,0,0,0,1,3.36,4,4,0,0,0,3.39,1.64,3.92,3.92,0,0,0,4-2.81l1.68.67a5.77,5.77,0,0,1-1.32,2,6,6,0,0,1-4.35,1.68c-3.76,0-6.14-2.64-6.14-6.79s2.35-6.79,5.95-6.79a5.67,5.67,0,0,1,5.81,5.21c0,.26.12,1.2.17,1.84Zm8.19-1.51a4.44,4.44,0,0,0-1.27-2.95,3.91,3.91,0,0,0-2.84-1.08,3.74,3.74,0,0,0-3.4,2.09,4.88,4.88,0,0,0-.6,1.94Z" transform="translate(-288 -80.54)"/>
  </g>
  <g>
    <path d="M315.14,348.71a17.65,17.65,0,0,0,2.45-.74l3.1-1.25v-8.38l-3.1-1.25a13.52,13.52,0,0,0-2.45-.74v-2.5a16,16,0,0,0,2.76,1.3l13.25,5.37a13.17,13.17,0,0,0,2.24.77v2.43a12.19,12.19,0,0,0-2.24.81l-13.25,5.38a24.46,24.46,0,0,0-2.76,1.27ZM330.27,343l1.53-.52-.79-.27c-.38-.14-.65-.21-.74-.26l-7.93-3.07v7.22Z" transform="translate(-288 -80.54)"/>
    <path d="M324.26,369.35c-5.78,0-9.48-3.24-9.48-8.31s3.7-8.28,9.48-8.28,9.49,3.27,9.49,8.31S330.05,369.35,324.26,369.35Zm-6.14-4.1a8.62,8.62,0,0,0,6.14,2.13,8.44,8.44,0,0,0,6.15-2.11,5.84,5.84,0,0,0,1.66-4.2c0-3.84-3.08-6.36-7.78-6.36s-7.8,2.54-7.8,6.38A5.69,5.69,0,0,0,318.12,365.25Z" transform="translate(-288 -80.54)"/>
    <path d="M315.14,372.44a14.33,14.33,0,0,0,2.69.2h12.89a17,17,0,0,0,2.74-.2c0,.87-.07,1.54-.07,2.64V380c0,3.7-1.9,5.79-5.24,5.79-3.53,0-5.57-2.16-5.57-5.91v-5.35h-4.72a15.08,15.08,0,0,0-2.72.19Zm9.1,7.42c0,2.55,1.37,4,3.82,4s3.67-1.4,3.67-4v-5.35h-7.49Z" transform="translate(-288 -80.54)"/>
  </g>
  <g>
    <path d="M832.2,192.1a5.61,5.61,0,0,0,2.11-1.13,5.24,5.24,0,0,0,1.73-4.15c0-3.89-3-6.34-7.75-6.34s-7.78,2.47-7.78,6.34a5.48,5.48,0,0,0,2,4.49,5.4,5.4,0,0,0,2.4,1l-.48,2a7.73,7.73,0,0,1-2.86-1.3,7.44,7.44,0,0,1-2.78-6.21,7.65,7.65,0,0,1,2.11-5.62,11.57,11.57,0,0,1,14.76.14,7.58,7.58,0,0,1,2,5.5,7.06,7.06,0,0,1-5,7.25Z" transform="translate(-288 -80.54)"/>
    <path d="M825.6,196.54c4.15,0,6.79,2.49,6.79,6.41s-2.64,6.38-6.77,6.38-6.79-2.5-6.79-6.36S821.45,196.54,825.6,196.54Zm0,1.85c-3.27,0-5.26,1.75-5.26,4.56s2,4.53,5.23,4.53,5.26-1.73,5.26-4.49S828.89,198.39,825.65,198.39Z" transform="translate(-288 -80.54)"/>
    <path d="M819.14,212.14a15.81,15.81,0,0,0,2.72.19h7.51a16.63,16.63,0,0,0,2.71-.19v2h-1.63a6.56,6.56,0,0,1-1-.07,5.23,5.23,0,0,1,2.9,4.85,4.34,4.34,0,0,1-1.8,3.84,4.94,4.94,0,0,1-2.76.67h-5.93a16.37,16.37,0,0,0-2.69.17v-2.16a19.52,19.52,0,0,0,2.72.16h5.59c2.16,0,3.31-1,3.31-2.92a4.2,4.2,0,0,0-1.89-3.44,5.19,5.19,0,0,0-2.38-1.1h-4.63a19.46,19.46,0,0,0-2.72.17Z" transform="translate(-288 -80.54)"/>
    <path d="M830.54,227.71a15,15,0,0,0-.14-2.18h1.82a14.37,14.37,0,0,0-.14,2.18v1h1.42a4.28,4.28,0,0,1,2.93.74,3.78,3.78,0,0,1,1.17,3,6.48,6.48,0,0,1-.48,2.54l-1.61-.5a3.65,3.65,0,0,0,.56-2,1.9,1.9,0,0,0-.65-1.63,3.49,3.49,0,0,0-2-.36h-1.32v1.2a18.49,18.49,0,0,0,.14,2.55H830.4a15.44,15.44,0,0,0,.14-2.55v-1.2h-8.71a17.9,17.9,0,0,0-2.69.17v-2.16a19.46,19.46,0,0,0,2.72.17h8.68Zm1.54,10.66a17.13,17.13,0,0,0-2.71-.17h-7.51a19,19,0,0,0-2.72.17v-2.16a21,21,0,0,0,2.72.17h7.51a17.56,17.56,0,0,0,2.71-.17Zm5.31.1h-2.14v-2.33h2.14Z" transform="translate(-288 -80.54)"/>
    <path d="M817.46,243.34a3.4,3.4,0,0,0-.84.77,4.58,4.58,0,0,0-1.12,3.21,4,4,0,0,0,2.64,4.18,13.47,13.47,0,0,0,3.55.43,4.3,4.3,0,0,1-1.32-1,5.56,5.56,0,0,1-1.25-3.72c0-3.63,2.52-5.93,6.53-5.93s6.67,2.35,6.67,6.07a5,5,0,0,1-2.52,4.61c.41,0,.6-.05.91-.05h1.37v1.92a18.36,18.36,0,0,0-2.69-.17H820.8c-2.35,0-3.86-.43-5-1.39a6.46,6.46,0,0,1-1.83-5,6.6,6.6,0,0,1,2.4-5.45Zm3.17,3.93c0,2.74,2.09,4.56,5.21,4.56s5-1.72,5-4.41-2-4.3-5.16-4.3S820.63,244.71,820.63,247.27Z" transform="translate(-288 -80.54)"/>
    <path d="M820.7,266.67a7.55,7.55,0,0,1,1.06.07,5.24,5.24,0,0,1-2.86-4.85,4.38,4.38,0,0,1,1.78-3.84,5.27,5.27,0,0,1,2.78-.67h5.93a17.29,17.29,0,0,0,2.69-.17v2.16a18.46,18.46,0,0,0-2.71-.17h-5.59c-2.14,0-3.34,1-3.34,2.91a4.12,4.12,0,0,0,1.9,3.45,5.59,5.59,0,0,0,2.4,1.11h4.63a18.64,18.64,0,0,0,2.71-.17v2.13a18.12,18.12,0,0,0-2.71-.16h-7.51a15.7,15.7,0,0,0-2.72.19v-2Z" transform="translate(-288 -80.54)"/>
    <path d="M830.23,279.84a5.62,5.62,0,0,0,.36-1.94,3.53,3.53,0,0,0-1.46-2.95,3.91,3.91,0,0,0-2.4-.89h-4.9a18.83,18.83,0,0,0-2.69.17v-2.16a21.94,21.94,0,0,0,2.72.16h7.51a17.45,17.45,0,0,0,2.71-.16v2h-1.37a5.62,5.62,0,0,1-.72,0,4.29,4.29,0,0,1,1.47,1.32,4.8,4.8,0,0,1,.84,2.88,11,11,0,0,1-.22,2.14Z" transform="translate(-288 -80.54)"/>
    <path d="M820.85,290.93a6.4,6.4,0,0,1-1.47-2.21,7.1,7.1,0,0,1-.48-2.49c0-2.64,1.37-4.25,3.65-4.25,1.92,0,3.32,1.2,3.94,3.43a19.51,19.51,0,0,1,.62,5.52h1.39c1.64,0,2.48-1,2.48-3a4,4,0,0,0-1-3,3.47,3.47,0,0,0-1.4-.74l.41-1.88a4.87,4.87,0,0,1,2.14,1.35,6,6,0,0,1,1.36,4.22c0,3.17-1.34,4.8-3.93,4.8h-6.75a15.76,15.76,0,0,0-2.64.19v-1.94Zm4.85,0c-.08-2.86-.24-4.22-.7-5.3a2.54,2.54,0,0,0-2.47-1.83c-1.32,0-2.16,1-2.16,2.55a5.44,5.44,0,0,0,1.7,3.84,2.63,2.63,0,0,0,2.07.74Z" transform="translate(-288 -80.54)"/>
    <path d="M835.66,299.86a17.36,17.36,0,0,0-2.67-.17h-.91v1.15a16,16,0,0,0,.14,2.45H830.4a14.5,14.5,0,0,0,.14-2.45v-1.15h-8.35a1.77,1.77,0,0,0-1.27.31,1.65,1.65,0,0,0-.41,1.18,3.33,3.33,0,0,0,.63,1.89l-1.68.53a6.43,6.43,0,0,1-.56-2.71,3.27,3.27,0,0,1,.75-2.35,3,3,0,0,1,2.3-.67h8.59v-1a15.37,15.37,0,0,0-.14-2.16h1.82a11.72,11.72,0,0,0-.14,2.16v1H833a18.26,18.26,0,0,0,2.67-.17Z" transform="translate(-288 -80.54)"/>
    <path d="M832.08,307.8a17.13,17.13,0,0,0-2.71-.17h-7.51a19,19,0,0,0-2.72.17v-2.16a21,21,0,0,0,2.72.17h7.51a17.56,17.56,0,0,0,2.71-.17Zm5.31.1h-2.14v-2.33h2.14Z" transform="translate(-288 -80.54)"/>
    <path d="M825.6,310.7c4.15,0,6.79,2.5,6.79,6.41s-2.64,6.39-6.77,6.39-6.79-2.5-6.79-6.36S821.45,310.7,825.6,310.7Zm0,1.85c-3.27,0-5.26,1.76-5.26,4.56s2,4.54,5.23,4.54,5.26-1.73,5.26-4.49S828.89,312.55,825.65,312.55Z" transform="translate(-288 -80.54)"/>
    <path d="M819.14,326.3a14.8,14.8,0,0,0,2.72.2h7.51a15.55,15.55,0,0,0,2.71-.2v2h-1.63a6.56,6.56,0,0,1-1-.07,5.2,5.2,0,0,1,2.9,4.84,4.31,4.31,0,0,1-1.8,3.84,4.86,4.86,0,0,1-2.76.68h-5.93a16.53,16.53,0,0,0-2.69.16v-2.16a19.46,19.46,0,0,0,2.72.17h5.59c2.16,0,3.31-1,3.31-2.93a4.19,4.19,0,0,0-1.89-3.43,5.19,5.19,0,0,0-2.38-1.1h-4.63a19.52,19.52,0,0,0-2.72.16Z" transform="translate(-288 -80.54)"/>
    <path d="M819.14,349.27a14.4,14.4,0,0,0,2.69.19h12.89a17,17,0,0,0,2.74-.19c-.05.87-.07,1.54-.07,2.64v4.9c0,3.7-1.9,5.78-5.24,5.78-3.53,0-5.57-2.16-5.57-5.9v-5.35h-4.72a14.21,14.21,0,0,0-2.72.19Zm9.1,7.42c0,2.54,1.37,4,3.82,4s3.67-1.39,3.67-4v-5.35h-7.49Z" transform="translate(-288 -80.54)"/>
    <path d="M830.23,372.79a5.62,5.62,0,0,0,.36-1.94,3.53,3.53,0,0,0-1.46-3,3.91,3.91,0,0,0-2.4-.89h-4.9a18.83,18.83,0,0,0-2.69.17V365a21.94,21.94,0,0,0,2.72.16h7.51a17.45,17.45,0,0,0,2.71-.16v2h-1.37a5.62,5.62,0,0,1-.72,0,4.29,4.29,0,0,1,1.47,1.32,4.8,4.8,0,0,1,.84,2.88,11,11,0,0,1-.22,2.14Z" transform="translate(-288 -80.54)"/>
    <path d="M825.6,374.74c4.15,0,6.79,2.49,6.79,6.4s-2.64,6.39-6.77,6.39-6.79-2.5-6.79-6.36S821.45,374.74,825.6,374.74Zm0,1.84c-3.27,0-5.26,1.76-5.26,4.56s2,4.54,5.23,4.54,5.26-1.73,5.26-4.49S828.89,376.58,825.65,376.58Z" transform="translate(-288 -80.54)"/>
    <path d="M814.1,390.34a19.84,19.84,0,0,0,2.69.16h12.53a19,19,0,0,0,2.76-.16v1.92h-1.37a7.69,7.69,0,0,1-1-.08,5.5,5.5,0,0,1,2.59,4.9c0,3.7-2.52,5.95-6.7,5.95s-6.69-2.3-6.69-5.9a5.74,5.74,0,0,1,2.54-4.95,12,12,0,0,1-1.68.1h-3a18.33,18.33,0,0,0-2.72.17Zm11.52,10.82c3.27,0,5.14-1.54,5.14-4.22s-2.06-4.64-5.16-4.64a5.44,5.44,0,0,0-3.84,1.37,4.71,4.71,0,0,0-1.27,3.29C820.49,399.58,822.43,401.16,825.62,401.16Z" transform="translate(-288 -80.54)"/>
    <path d="M825.34,407.09a5.4,5.4,0,0,0-3.36,1,4,4,0,0,0-1.64,3.38,3.92,3.92,0,0,0,2.81,4l-.67,1.68a5.64,5.64,0,0,1-2-1.32,6,6,0,0,1-1.68-4.34c0-3.77,2.64-6.15,6.79-6.15s6.79,2.36,6.79,6a5.69,5.69,0,0,1-5.21,5.81c-.26,0-1.2.12-1.84.16Zm1.51,8.18A4.35,4.35,0,0,0,829.8,414a3.89,3.89,0,0,0,1.08-2.83,3.74,3.74,0,0,0-2.09-3.41,4.88,4.88,0,0,0-1.94-.6Z" transform="translate(-288 -80.54)"/>
    <path d="M830.23,427.75a5.62,5.62,0,0,0,.36-1.94,3.53,3.53,0,0,0-1.46-2.95,3.91,3.91,0,0,0-2.4-.89h-4.9a18.83,18.83,0,0,0-2.69.17V420a21.94,21.94,0,0,0,2.72.16h7.51a17.45,17.45,0,0,0,2.71-.16v2h-1.37a5.62,5.62,0,0,1-.72,0,4.29,4.29,0,0,1,1.47,1.32,4.8,4.8,0,0,1,.84,2.88,11,11,0,0,1-.22,2.14Z" transform="translate(-288 -80.54)"/>
    <path d="M835.66,434a17.36,17.36,0,0,0-2.67-.17h-.91V435a16,16,0,0,0,.14,2.45H830.4a14.5,14.5,0,0,0,.14-2.45V433.8h-8.35a1.77,1.77,0,0,0-1.27.31,1.65,1.65,0,0,0-.41,1.18,3.33,3.33,0,0,0,.63,1.89l-1.68.53a6.43,6.43,0,0,1-.56-2.71,3.27,3.27,0,0,1,.75-2.35A3,3,0,0,1,822,432h8.59v-1a15.37,15.37,0,0,0-.14-2.16h1.82a11.72,11.72,0,0,0-.14,2.16v1H833a18.26,18.26,0,0,0,2.67-.17Z" transform="translate(-288 -80.54)"/>
    <path d="M832.08,441.91a17.13,17.13,0,0,0-2.71-.17h-7.51a19,19,0,0,0-2.72.17v-2.16a21,21,0,0,0,2.72.17h7.51a17.56,17.56,0,0,0,2.71-.17Zm5.31.1h-2.14v-2.33h2.14Z" transform="translate(-288 -80.54)"/>
    <path d="M825.34,446.64a5.4,5.4,0,0,0-3.36,1,4,4,0,0,0-1.64,3.38,3.92,3.92,0,0,0,2.81,4l-.67,1.68a5.5,5.5,0,0,1-2-1.32,6,6,0,0,1-1.68-4.34c0-3.77,2.64-6.14,6.79-6.14s6.79,2.35,6.79,5.95a5.68,5.68,0,0,1-5.21,5.81c-.26,0-1.2.12-1.84.16Zm1.51,8.18a4.35,4.35,0,0,0,2.95-1.27,3.89,3.89,0,0,0,1.08-2.83,3.76,3.76,0,0,0-2.09-3.41,5.22,5.22,0,0,0-1.94-.6Z" transform="translate(-288 -80.54)"/>
    <path d="M823,460.8a2.71,2.71,0,0,0-1.75.84,4.07,4.07,0,0,0-.84,2.78c0,2.09.89,3.41,2.31,3.41a1.61,1.61,0,0,0,1.48-.74,7.74,7.74,0,0,0,.87-2.83,9.05,9.05,0,0,1,1.25-3.56,2.93,2.93,0,0,1,2.52-1.29,3.19,3.19,0,0,1,2.32,1,5.24,5.24,0,0,1,1.25,3.74,5.5,5.5,0,0,1-1.15,3.77,3.84,3.84,0,0,1-2.18,1.27l-.32-1.89a2.29,2.29,0,0,0,1.28-.6,3.29,3.29,0,0,0,.91-2.5c0-1.75-.89-3-2.16-3a1.48,1.48,0,0,0-1.32.82,9.15,9.15,0,0,0-.82,2.66c-.53,2.33-.81,3.1-1.37,3.82a3.17,3.17,0,0,1-2.49,1.15c-2.4,0-3.89-2-3.89-5.33,0-2.18.65-3.86,1.87-4.75a4.76,4.76,0,0,1,1.9-.77Z" transform="translate(-288 -80.54)"/>
  </g>
  <path d="M863,145V503H289V145H863m1-1H288V504H864V144Z" transform="translate(-288 -80.54)"/>
  <line class="cls-2" x1="72" y1="350.96" x2="432" y2="350.96"/>
  <g>
    <path d="M760.2,257.74a5.61,5.61,0,0,0,2.11-1.13,5.24,5.24,0,0,0,1.73-4.15c0-3.89-3-6.34-7.75-6.34s-7.78,2.47-7.78,6.34a5.48,5.48,0,0,0,2,4.49,5.4,5.4,0,0,0,2.4,1l-.48,2a7.73,7.73,0,0,1-2.86-1.3,7.44,7.44,0,0,1-2.78-6.21,7.65,7.65,0,0,1,2.11-5.62,11.57,11.57,0,0,1,14.76.14,7.58,7.58,0,0,1,2,5.5,7.06,7.06,0,0,1-5,7.25Z" transform="translate(-288 -80.54)"/>
    <path d="M753.6,262.18c4.15,0,6.79,2.49,6.79,6.41s-2.64,6.38-6.77,6.38-6.79-2.5-6.79-6.36S749.45,262.18,753.6,262.18Zm0,1.84c-3.27,0-5.26,1.76-5.26,4.57s2,4.53,5.23,4.53,5.26-1.73,5.26-4.49S756.89,264,753.65,264Z" transform="translate(-288 -80.54)"/>
    <path d="M747.14,277.78a15.81,15.81,0,0,0,2.72.19h7.51a16.63,16.63,0,0,0,2.71-.19v2h-1.63a6.56,6.56,0,0,1-1-.07,5.23,5.23,0,0,1,2.9,4.85,4.34,4.34,0,0,1-1.8,3.84,4.94,4.94,0,0,1-2.76.67h-5.93a16.37,16.37,0,0,0-2.69.17v-2.16a19.52,19.52,0,0,0,2.72.16h5.59c2.16,0,3.31-1,3.31-2.92a4.2,4.2,0,0,0-1.89-3.44,5.19,5.19,0,0,0-2.38-1.1h-4.63a19.46,19.46,0,0,0-2.72.17Z" transform="translate(-288 -80.54)"/>
    <path d="M758.54,293.35a15,15,0,0,0-.14-2.18h1.82a14.37,14.37,0,0,0-.14,2.18v1h1.42a4.28,4.28,0,0,1,2.93.74,3.78,3.78,0,0,1,1.17,3,6.48,6.48,0,0,1-.48,2.54l-1.61-.5a3.65,3.65,0,0,0,.56-2,1.9,1.9,0,0,0-.65-1.63,3.49,3.49,0,0,0-2-.36h-1.32v1.2a18.49,18.49,0,0,0,.14,2.55H758.4a15.44,15.44,0,0,0,.14-2.55v-1.2h-8.71a17.9,17.9,0,0,0-2.69.17v-2.16a19.46,19.46,0,0,0,2.72.17h8.68ZM760.08,304a17.13,17.13,0,0,0-2.71-.17h-7.51a19,19,0,0,0-2.72.17v-2.16a21,21,0,0,0,2.72.17h7.51a17.56,17.56,0,0,0,2.71-.17Zm5.31.1h-2.14v-2.33h2.14Z" transform="translate(-288 -80.54)"/>
    <path d="M745.46,309a3.4,3.4,0,0,0-.84.77A4.58,4.58,0,0,0,743.5,313a4,4,0,0,0,2.64,4.18,13.47,13.47,0,0,0,3.55.43,4.3,4.3,0,0,1-1.32-1,5.56,5.56,0,0,1-1.25-3.72c0-3.63,2.52-5.93,6.53-5.93s6.67,2.35,6.67,6.07a5,5,0,0,1-2.52,4.61c.41,0,.6-.05.91-.05h1.37v1.92a18.36,18.36,0,0,0-2.69-.17H748.8c-2.35,0-3.86-.43-5-1.39a6.46,6.46,0,0,1-1.83-5,6.59,6.59,0,0,1,2.4-5.45Zm3.17,3.93c0,2.74,2.09,4.56,5.21,4.56s5-1.72,5-4.41-2-4.3-5.16-4.3S748.63,310.35,748.63,312.91Z" transform="translate(-288 -80.54)"/>
    <path d="M748.7,332.31a7.55,7.55,0,0,1,1.06.07,5.24,5.24,0,0,1-2.86-4.85,4.38,4.38,0,0,1,1.78-3.84,5.27,5.27,0,0,1,2.78-.67h5.93a17.29,17.29,0,0,0,2.69-.17V325a18.46,18.46,0,0,0-2.71-.17h-5.59c-2.14,0-3.34,1-3.34,2.91a4.12,4.12,0,0,0,1.9,3.45,5.59,5.59,0,0,0,2.4,1.11h4.63a18.64,18.64,0,0,0,2.71-.17v2.13a18.12,18.12,0,0,0-2.71-.16h-7.51a15.7,15.7,0,0,0-2.72.19v-2Z" transform="translate(-288 -80.54)"/>
    <path d="M758.23,345.48a5.62,5.62,0,0,0,.36-1.94,3.56,3.56,0,0,0-1.46-3,4,4,0,0,0-2.4-.88h-4.9a18.89,18.89,0,0,0-2.69.16V337.7a22,22,0,0,0,2.72.17h7.51a17.3,17.3,0,0,0,2.71-.17v2h-1.37a5.62,5.62,0,0,1-.72,0,4.29,4.29,0,0,1,1.47,1.32,4.78,4.78,0,0,1,.84,2.88,11,11,0,0,1-.22,2.14Z" transform="translate(-288 -80.54)"/>
    <path d="M748.85,356.57a6.4,6.4,0,0,1-1.47-2.21,7.15,7.15,0,0,1-.48-2.5c0-2.64,1.37-4.24,3.65-4.24,1.92,0,3.32,1.2,3.94,3.43a19.46,19.46,0,0,1,.62,5.52h1.39c1.64,0,2.48-1,2.48-3a3.94,3.94,0,0,0-1-3,3.46,3.46,0,0,0-1.4-.75L757,348a4.79,4.79,0,0,1,2.14,1.35,6,6,0,0,1,1.36,4.22c0,3.17-1.34,4.8-3.93,4.8h-6.75a15.76,15.76,0,0,0-2.64.19v-1.94Zm4.85,0c-.08-2.86-.24-4.23-.7-5.31a2.55,2.55,0,0,0-2.47-1.82c-1.32,0-2.16,1-2.16,2.54a5.45,5.45,0,0,0,1.7,3.85,2.63,2.63,0,0,0,2.07.74Z" transform="translate(-288 -80.54)"/>
    <path d="M763.66,365.5a17.36,17.36,0,0,0-2.67-.17h-.91v1.15a16,16,0,0,0,.14,2.45H758.4a14.5,14.5,0,0,0,.14-2.45v-1.15h-8.35c-.69,0-1.05.09-1.27.31a1.64,1.64,0,0,0-.41,1.18,3.33,3.33,0,0,0,.63,1.89l-1.68.53a6.43,6.43,0,0,1-.56-2.71,3.27,3.27,0,0,1,.75-2.35,3,3,0,0,1,2.3-.68h8.59v-1a15.57,15.57,0,0,0-.14-2.16h1.82a11.86,11.86,0,0,0-.14,2.16v1H761a18.34,18.34,0,0,0,2.67-.16Z" transform="translate(-288 -80.54)"/>
    <path d="M760.08,373.44a17.13,17.13,0,0,0-2.71-.17h-7.51a19,19,0,0,0-2.72.17v-2.16a21,21,0,0,0,2.72.17h7.51a17.56,17.56,0,0,0,2.71-.17Zm5.31.1h-2.14v-2.33h2.14Z" transform="translate(-288 -80.54)"/>
    <path d="M753.6,376.34c4.15,0,6.79,2.5,6.79,6.41s-2.64,6.39-6.77,6.39-6.79-2.5-6.79-6.36S749.45,376.34,753.6,376.34Zm0,1.85c-3.27,0-5.26,1.75-5.26,4.56s2,4.54,5.23,4.54,5.26-1.73,5.26-4.49S756.89,378.19,753.65,378.19Z" transform="translate(-288 -80.54)"/>
    <path d="M747.14,391.94a14.8,14.8,0,0,0,2.72.2h7.51a15.55,15.55,0,0,0,2.71-.2v2h-1.63a6.56,6.56,0,0,1-1-.07,5.2,5.2,0,0,1,2.9,4.84,4.31,4.31,0,0,1-1.8,3.84,4.86,4.86,0,0,1-2.76.68h-5.93a16.53,16.53,0,0,0-2.69.16v-2.16a19.46,19.46,0,0,0,2.72.17h5.59c2.16,0,3.31-1,3.31-2.93a4.19,4.19,0,0,0-1.89-3.43,5.19,5.19,0,0,0-2.38-1.1h-4.63a19.52,19.52,0,0,0-2.72.16Z" transform="translate(-288 -80.54)"/>
  </g>
  <g>
    <path d="M449.06,185.35c.1.27.34,1,.58,1.68l.55-1.68,4.52-12.29a9.86,9.86,0,0,0,.69-2.45h2.5a16.85,16.85,0,0,0-1.23,2.79l-5.13,13.22a17.85,17.85,0,0,0-.75,2.24h-2.33a11.56,11.56,0,0,0-.76-2.24l-5.14-13.22a23.8,23.8,0,0,0-1.22-2.79h2.47a16.46,16.46,0,0,0,.69,2.45Z" transform="translate(-288 -80.54)"/>
    <path d="M462.22,170.61v2.14h-2.33v-2.14Zm-.1,5.31a17.13,17.13,0,0,0-.17,2.71v7.51a19,19,0,0,0,.17,2.72H460a21,21,0,0,0,.17-2.72v-7.51a17.56,17.56,0,0,0-.17-2.71Z" transform="translate(-288 -80.54)"/>
    <path d="M466.85,182.66a5.4,5.4,0,0,0,1,3.36,4,4,0,0,0,3.38,1.64,3.92,3.92,0,0,0,4-2.81l1.68.67a5.64,5.64,0,0,1-1.32,2,6,6,0,0,1-4.34,1.68c-3.77,0-6.15-2.64-6.15-6.79s2.36-6.79,6-6.79a5.68,5.68,0,0,1,5.81,5.21c0,.26.12,1.2.16,1.84Zm8.18-1.51a4.35,4.35,0,0,0-1.27-3,3.89,3.89,0,0,0-2.83-1.08,3.74,3.74,0,0,0-3.41,2.09,4.88,4.88,0,0,0-.6,1.94Z" transform="translate(-288 -80.54)"/>
    <path d="M490.56,188.86a15.41,15.41,0,0,0-.48-1.8l-2.35-7c-.05-.12-.17-.62-.41-1.51-.19.67-.38,1.32-.46,1.56l-2.32,6.94a13.18,13.18,0,0,0-.51,1.8h-1.68a14.44,14.44,0,0,0-.53-1.83l-2.56-8.28c-.29-.89-.68-2-1-2.83h2.2a11,11,0,0,0,.56,2.62l1.75,6c.12.41.26.91.43,1.75.14-.55.43-1.51.5-1.72l2.28-6.8a7.84,7.84,0,0,0,.48-1.82h1.61a12.86,12.86,0,0,0,.48,1.82l2.31,6.92c.07.21.21.74.31,1.08s.09.36.14.52c.22-.93.34-1.48.39-1.63l1.8-6.09a11.87,11.87,0,0,0,.52-2.62h2.19c-.19.5-.5,1.46-.94,2.83l-2.59,8.31a13.34,13.34,0,0,0-.5,1.8Z" transform="translate(-288 -80.54)"/>
  </g>
  <g>
    <path d="M909,237.15a15.92,15.92,0,0,0,.16-2.69v-7c0-1.16,0-1.83-.07-2.64a16.94,16.94,0,0,0,2.86.19h12.79a18.3,18.3,0,0,0,2.74-.19c-.05.83-.07,1.48-.07,2.64v6.84a17.87,17.87,0,0,0,.16,2.68h-2a16.73,16.73,0,0,0,.17-2.68v-7.4h-6.15v6.32a18.69,18.69,0,0,0,.17,2.68h-2a16.16,16.16,0,0,0,.17-2.68v-6.32h-7.06v7.61a17.8,17.8,0,0,0,.17,2.67Z" transform="translate(-288 -80.54)"/>
    <path d="M909.14,248.43c.63-.34,1-.58,1.78-1.08l3.67-2.55-3.89-2.66a10.21,10.21,0,0,0-1.56-.94v-2.38c.48.39,1.32,1,2.09,1.56l4.61,3.34,4.32-3.1c.22-.14.46-.33,1.92-1.44v2.36a8.71,8.71,0,0,0-1.61.93l-3.38,2.36,3.38,2.32a11.13,11.13,0,0,0,1.61.94v2.3c-.77-.55-1.41-1-2-1.46l-4.25-3-4.42,3.16-2.28,1.73Z" transform="translate(-288 -80.54)"/>
    <path d="M925.66,256.61a17.36,17.36,0,0,0-2.67-.17h-.91v1.15a16,16,0,0,0,.14,2.45H920.4a14.5,14.5,0,0,0,.14-2.45v-1.15h-8.35a1.77,1.77,0,0,0-1.27.31,1.65,1.65,0,0,0-.41,1.18,3.38,3.38,0,0,0,.63,1.9l-1.68.52a6.43,6.43,0,0,1-.56-2.71,3.27,3.27,0,0,1,.75-2.35,3,3,0,0,1,2.3-.67h8.59v-1a15.37,15.37,0,0,0-.14-2.16h1.82a11.72,11.72,0,0,0-.14,2.16v1H923a18.26,18.26,0,0,0,2.67-.17Z" transform="translate(-288 -80.54)"/>
    <path d="M915.34,263.57a5.4,5.4,0,0,0-3.36,1,4,4,0,0,0-1.64,3.38,3.92,3.92,0,0,0,2.81,4l-.67,1.68a5.5,5.5,0,0,1-2-1.32,6,6,0,0,1-1.68-4.34c0-3.77,2.64-6.15,6.79-6.15s6.79,2.36,6.79,6a5.68,5.68,0,0,1-5.21,5.81c-.26,0-1.2.12-1.84.16Zm1.51,8.18a4.35,4.35,0,0,0,2.95-1.27,3.89,3.89,0,0,0,1.08-2.83,3.76,3.76,0,0,0-2.09-3.41,4.88,4.88,0,0,0-1.94-.6Z" transform="translate(-288 -80.54)"/>
    <path d="M920.23,284.23a5.62,5.62,0,0,0,.36-1.94,3.53,3.53,0,0,0-1.46-3,3.91,3.91,0,0,0-2.4-.89h-4.9a18.83,18.83,0,0,0-2.69.17v-2.16a21.94,21.94,0,0,0,2.72.16h7.51a17.45,17.45,0,0,0,2.71-.16v2h-1.37a5.62,5.62,0,0,1-.72,0,4.21,4.21,0,0,1,1.47,1.33,4.75,4.75,0,0,1,.84,2.87,10.89,10.89,0,0,1-.22,2.14Z" transform="translate(-288 -80.54)"/>
    <path d="M909.14,286.78a15.81,15.81,0,0,0,2.72.19h7.51a16.63,16.63,0,0,0,2.71-.19v2h-1.63a6.56,6.56,0,0,1-1-.07,5.2,5.2,0,0,1,2.9,4.84,4.34,4.34,0,0,1-1.8,3.85,4.94,4.94,0,0,1-2.76.67h-5.93a16.37,16.37,0,0,0-2.69.17v-2.16a19.52,19.52,0,0,0,2.72.16h5.59c2.16,0,3.31-1,3.31-2.92a4.2,4.2,0,0,0-1.89-3.44,5.19,5.19,0,0,0-2.38-1.1h-4.63a19.46,19.46,0,0,0-2.72.17Z" transform="translate(-288 -80.54)"/>
    <path d="M910.85,310.15a6.31,6.31,0,0,1-1.47-2.21,7.1,7.1,0,0,1-.48-2.49c0-2.64,1.37-4.25,3.65-4.25,1.92,0,3.32,1.2,3.94,3.43a19.51,19.51,0,0,1,.62,5.52h1.39c1.64,0,2.48-1,2.48-3a4,4,0,0,0-1-3,3.47,3.47,0,0,0-1.4-.74l.41-1.87a4.78,4.78,0,0,1,2.14,1.34,6,6,0,0,1,1.36,4.22c0,3.17-1.34,4.81-3.93,4.81h-6.75a14.77,14.77,0,0,0-2.64.19v-2Zm4.85,0c-.08-2.85-.24-4.22-.7-5.3a2.54,2.54,0,0,0-2.47-1.83c-1.32,0-2.16,1-2.16,2.55a5.44,5.44,0,0,0,1.7,3.84,2.63,2.63,0,0,0,2.07.74Z" transform="translate(-288 -80.54)"/>
    <path d="M927.39,317.57a17.53,17.53,0,0,0-2.72-.17H911.83a19,19,0,0,0-2.69.17v-2.16a18.17,18.17,0,0,0,2.69.17H924.7a17.37,17.37,0,0,0,2.69-.17Z" transform="translate(-288 -80.54)"/>
    <path d="M922.66,339.65a3.94,3.94,0,0,0,2-.84,4.46,4.46,0,0,0,1.39-3.55c0-2.48-1.32-4.2-3.26-4.2a2.84,2.84,0,0,0-2.72,2.08,18.42,18.42,0,0,0-.86,3.44c-.82,3.84-2.28,5.37-5.06,5.37-3.39,0-5.31-2.33-5.31-6.45,0-2.69.79-4.68,2.28-5.79a6.24,6.24,0,0,1,3.17-1.13l.26,2.09a3.68,3.68,0,0,0-2.37.75,4.84,4.84,0,0,0-1.66,4c0,2.86,1.35,4.59,3.58,4.59a2.76,2.76,0,0,0,2.57-1.39c.45-.8.52-1.06,1.17-4a10.71,10.71,0,0,1,1.11-3.27,4.09,4.09,0,0,1,3.79-2.23c3,0,5,2.42,5,6.14a6.33,6.33,0,0,1-2.21,5.31,5.63,5.63,0,0,1-2.54,1.06Z" transform="translate(-288 -80.54)"/>
    <path d="M915.34,346.25a5.4,5.4,0,0,0-3.36,1,4,4,0,0,0-1.64,3.38,3.92,3.92,0,0,0,2.81,4l-.67,1.68a5.64,5.64,0,0,1-2-1.32,6,6,0,0,1-1.68-4.34c0-3.77,2.64-6.15,6.79-6.15s6.79,2.36,6.79,6a5.67,5.67,0,0,1-5.21,5.8l-1.84.17Zm1.51,8.18a4.35,4.35,0,0,0,2.95-1.27,3.89,3.89,0,0,0,1.08-2.83,3.74,3.74,0,0,0-2.09-3.41,4.88,4.88,0,0,0-1.94-.6Z" transform="translate(-288 -80.54)"/>
    <path d="M925.66,362.81a17.36,17.36,0,0,0-2.67-.17h-.91v1.15a16,16,0,0,0,.14,2.45H920.4a14.5,14.5,0,0,0,.14-2.45v-1.15h-8.35a1.77,1.77,0,0,0-1.27.31,1.65,1.65,0,0,0-.41,1.18,3.33,3.33,0,0,0,.63,1.89l-1.68.53a6.43,6.43,0,0,1-.56-2.71,3.27,3.27,0,0,1,.75-2.35,3,3,0,0,1,2.3-.67h8.59v-1a15.37,15.37,0,0,0-.14-2.16h1.82a11.72,11.72,0,0,0-.14,2.16v1H923a18.26,18.26,0,0,0,2.67-.17Z" transform="translate(-288 -80.54)"/>
    <path d="M925.66,372.22a17.36,17.36,0,0,0-2.67-.17h-.91v1.15a16,16,0,0,0,.14,2.45H920.4a14.5,14.5,0,0,0,.14-2.45v-1.15h-8.35c-.69,0-1.05.09-1.27.31a1.64,1.64,0,0,0-.41,1.18,3.33,3.33,0,0,0,.63,1.89l-1.68.53a6.43,6.43,0,0,1-.56-2.71,3.27,3.27,0,0,1,.75-2.35,3,3,0,0,1,2.3-.68h8.59v-1a15.57,15.57,0,0,0-.14-2.16h1.82a11.72,11.72,0,0,0-.14,2.16v1H923a18.34,18.34,0,0,0,2.67-.16Z" transform="translate(-288 -80.54)"/>
    <path d="M922.08,380.16a17.13,17.13,0,0,0-2.71-.17h-7.51a19,19,0,0,0-2.72.17V378a21,21,0,0,0,2.72.17h7.51a17.56,17.56,0,0,0,2.71-.17Zm5.31.1h-2.14v-2.33h2.14Z" transform="translate(-288 -80.54)"/>
    <path d="M909.14,383.66a14.87,14.87,0,0,0,2.72.19h7.51a15.58,15.58,0,0,0,2.71-.19v2h-1.63a5.76,5.76,0,0,1-1-.08,5.23,5.23,0,0,1,2.9,4.85,4.32,4.32,0,0,1-1.8,3.84,4.86,4.86,0,0,1-2.76.67h-5.93a16.37,16.37,0,0,0-2.69.17V393a19.46,19.46,0,0,0,2.72.17h5.59c2.16,0,3.31-1,3.31-2.93a4.19,4.19,0,0,0-1.89-3.43,5.09,5.09,0,0,0-2.38-1.1h-4.63a19.52,19.52,0,0,0-2.72.16Z" transform="translate(-288 -80.54)"/>
    <path d="M907.46,400a3.61,3.61,0,0,0-.84.77A4.59,4.59,0,0,0,905.5,404a4,4,0,0,0,2.64,4.17,13.32,13.32,0,0,0,3.55.44,4.31,4.31,0,0,1-1.32-1,5.54,5.54,0,0,1-1.25-3.72c0-3.62,2.52-5.93,6.53-5.93s6.67,2.36,6.67,6.08a5,5,0,0,1-2.52,4.61c.41,0,.6-.05.91-.05h1.37v1.92a18.36,18.36,0,0,0-2.69-.17H910.8c-2.35,0-3.86-.43-5-1.39a6.46,6.46,0,0,1-1.83-5,6.59,6.59,0,0,1,2.4-5.45Zm3.17,3.94c0,2.74,2.09,4.56,5.21,4.56s5-1.73,5-4.42-2-4.29-5.16-4.29S910.63,401.35,910.63,403.92Z" transform="translate(-288 -80.54)"/>
    <path d="M913,415.15a2.71,2.71,0,0,0-1.75.84,4.08,4.08,0,0,0-.84,2.79c0,2.08.89,3.4,2.31,3.4a1.61,1.61,0,0,0,1.48-.74,7.74,7.74,0,0,0,.87-2.83,9.12,9.12,0,0,1,1.25-3.56,2.93,2.93,0,0,1,2.52-1.29,3.19,3.19,0,0,1,2.32,1,5.25,5.25,0,0,1,1.25,3.75,5.49,5.49,0,0,1-1.15,3.76,3.9,3.9,0,0,1-2.18,1.28l-.32-1.9a2.17,2.17,0,0,0,1.28-.6,3.29,3.29,0,0,0,.91-2.5c0-1.75-.89-3-2.16-3a1.48,1.48,0,0,0-1.32.82,9.26,9.26,0,0,0-.82,2.66c-.53,2.33-.81,3.1-1.37,3.82a3.17,3.17,0,0,1-2.49,1.15c-2.4,0-3.89-2-3.89-5.33,0-2.18.65-3.86,1.87-4.75a4.76,4.76,0,0,1,1.9-.77Z" transform="translate(-288 -80.54)"/>
  </g>
  <polygon class="cls-3" points="567 243.46 589.5 225.46 589.5 234.46 612 234.46 612 252.46 589.5 252.46 589.5 261.46 567 243.46"/>
  <g>
    <path d="M369.16,98.86a16.64,16.64,0,0,0-1.42-4.11c-1.39-3.29-2.33-4.22-4.25-4.22h-4.44v5.61a14,14,0,0,0,.2,2.72H357a14.06,14.06,0,0,0,.2-2.69V83.3a16.53,16.53,0,0,0-.2-2.76c.84,0,1.52.07,2.62.07h5.28c3.48,0,5.4,1.64,5.4,4.61a4.34,4.34,0,0,1-1.44,3.53,4.93,4.93,0,0,1-2.59,1.2c1,.29,1.58.94,2.45,2.64.57,1.13,1.15,2.38,1.89,4a24.19,24.19,0,0,0,1.08,2.24Zm-4.42-10a3.8,3.8,0,0,0,2.71-1,3.14,3.14,0,0,0,.92-2.42c0-2-1.2-3.15-3.48-3.15h-5.84v6.6Z" transform="translate(-288 -80.54)"/>
    <path d="M375.52,92.66a5.4,5.4,0,0,0,1,3.36,4,4,0,0,0,3.38,1.64,3.92,3.92,0,0,0,4-2.81l1.68.67a5.64,5.64,0,0,1-1.32,2,6,6,0,0,1-4.34,1.68c-3.77,0-6.15-2.64-6.15-6.79s2.35-6.79,6-6.79a5.67,5.67,0,0,1,5.8,5.21c0,.26.12,1.2.17,1.84Zm8.18-1.51a4.35,4.35,0,0,0-1.27-3,3.89,3.89,0,0,0-2.83-1.08,3.74,3.74,0,0,0-3.41,2.09,4.88,4.88,0,0,0-.6,1.94Z" transform="translate(-288 -80.54)"/>
    <path d="M398.39,103.9a19.07,19.07,0,0,0,.17-2.72v-3a13,13,0,0,1,.09-1.68,5.57,5.57,0,0,1-4.87,2.54c-3.7,0-6-2.54-6-6.67s2.31-6.72,5.93-6.72a5.41,5.41,0,0,1,4.92,2.59,8.85,8.85,0,0,1-.07-1V85.92h1.92a18.44,18.44,0,0,0-.17,2.76v12.53a19,19,0,0,0,.17,2.69Zm-4.51-6.39c2.81,0,4.65-2,4.65-5.18s-1.8-5.09-4.56-5.09-4.29,1.92-4.29,5.16S391.26,97.51,393.88,97.51Z" transform="translate(-288 -80.54)"/>
    <path d="M413.34,97.3a7.55,7.55,0,0,1,.07-1.06,5.23,5.23,0,0,1-4.85,2.86,4.39,4.39,0,0,1-3.84-1.78,5.27,5.27,0,0,1-.67-2.78V88.61a17.29,17.29,0,0,0-.17-2.69H406a18.55,18.55,0,0,0-.16,2.71v5.59c0,2.14,1,3.34,2.9,3.34a4.13,4.13,0,0,0,3.46-1.9,5.57,5.57,0,0,0,1.1-2.4V88.63a18.64,18.64,0,0,0-.17-2.71h2.14a18,18,0,0,0-.17,2.71v7.51a16.75,16.75,0,0,0,.19,2.72h-2Z" transform="translate(-288 -80.54)"/>
    <path d="M420,92.66a5.53,5.53,0,0,0,1,3.36,4,4,0,0,0,3.39,1.64,3.92,3.92,0,0,0,4-2.81l1.68.67a5.77,5.77,0,0,1-1.32,2,6,6,0,0,1-4.34,1.68c-3.77,0-6.15-2.64-6.15-6.79s2.35-6.79,5.95-6.79a5.67,5.67,0,0,1,5.81,5.21c0,.26.12,1.2.17,1.84Zm8.19-1.51a4.35,4.35,0,0,0-1.27-3,3.9,3.9,0,0,0-2.83-1.08,3.74,3.74,0,0,0-3.41,2.09,4.88,4.88,0,0,0-.6,1.94Z" transform="translate(-288 -80.54)"/>
    <path d="M434.12,95a2.71,2.71,0,0,0,.84,1.75,4.08,4.08,0,0,0,2.79.84c2.09,0,3.41-.89,3.41-2.31a1.6,1.6,0,0,0-.75-1.48,7.59,7.59,0,0,0-2.83-.87A9,9,0,0,1,434,91.7a2.94,2.94,0,0,1-1.3-2.52,3.23,3.23,0,0,1,1-2.33,5.29,5.29,0,0,1,3.75-1.24,5.54,5.54,0,0,1,3.77,1.15,3.89,3.89,0,0,1,1.27,2.18l-1.9.32a2.17,2.17,0,0,0-.6-1.28,3.26,3.26,0,0,0-2.49-.91c-1.76,0-3,.89-3,2.16a1.47,1.47,0,0,0,.81,1.32,8.93,8.93,0,0,0,2.67.82c2.33.53,3.09.81,3.81,1.37A3.15,3.15,0,0,1,443,95.23c0,2.4-2,3.89-5.33,3.89-2.19,0-3.87-.65-4.76-1.87a4.77,4.77,0,0,1-.76-1.9Z" transform="translate(-288 -80.54)"/>
    <path d="M449.41,82.34a17.36,17.36,0,0,0-.17,2.67v.91h1.16a13.62,13.62,0,0,0,2.44-.15V87.6a14.31,14.31,0,0,0-2.44-.14h-1.16v8.35a1.72,1.72,0,0,0,.32,1.27,1.63,1.63,0,0,0,1.17.41,3.33,3.33,0,0,0,1.9-.63l.53,1.68a6.47,6.47,0,0,1-2.72.56,3.29,3.29,0,0,1-2.35-.75,3,3,0,0,1-.67-2.3V87.46h-1a15.37,15.37,0,0,0-2.16.14V85.77a10.09,10.09,0,0,0,2.16.15h1V85a18.26,18.26,0,0,0-.17-2.67Z" transform="translate(-288 -80.54)"/>
    <path d="M475.43,98.86A16.64,16.64,0,0,0,474,94.75c-1.39-3.29-2.32-4.22-4.25-4.22h-4.44v5.61a14,14,0,0,0,.2,2.72h-2.24a14.06,14.06,0,0,0,.2-2.69V83.3a16.53,16.53,0,0,0-.2-2.76c.84,0,1.52.07,2.62.07h5.28c3.48,0,5.4,1.64,5.4,4.61a4.31,4.31,0,0,1-1.44,3.53,4.86,4.86,0,0,1-2.59,1.2c1,.29,1.58.94,2.45,2.64.57,1.13,1.15,2.38,1.89,4A24.19,24.19,0,0,0,478,98.86Zm-4.42-10a3.85,3.85,0,0,0,2.72-1,3.17,3.17,0,0,0,.91-2.42c0-2-1.2-3.15-3.48-3.15h-5.84v6.6Z" transform="translate(-288 -80.54)"/>
    <path d="M481.79,92.66a5.4,5.4,0,0,0,1,3.36,4,4,0,0,0,3.38,1.64,3.92,3.92,0,0,0,4-2.81l1.68.67a5.64,5.64,0,0,1-1.32,2,6,6,0,0,1-4.34,1.68c-3.77,0-6.15-2.64-6.15-6.79s2.36-6.79,6-6.79a5.68,5.68,0,0,1,5.81,5.21c0,.26.12,1.2.16,1.84ZM490,91.15a4.35,4.35,0,0,0-1.27-3,3.89,3.89,0,0,0-2.83-1.08,3.74,3.74,0,0,0-3.41,2.09,4.88,4.88,0,0,0-.6,1.94Z" transform="translate(-288 -80.54)"/>
    <path d="M504.66,103.9a19.07,19.07,0,0,0,.17-2.72v-3a13,13,0,0,1,.09-1.68,5.57,5.57,0,0,1-4.87,2.54c-3.69,0-6-2.54-6-6.67s2.3-6.72,5.92-6.72a5.41,5.41,0,0,1,4.92,2.59,8.85,8.85,0,0,1-.07-1V85.92h1.92a18.44,18.44,0,0,0-.17,2.76v12.53a19,19,0,0,0,.17,2.69Zm-4.51-6.39c2.81,0,4.65-2,4.65-5.18s-1.8-5.09-4.56-5.09S496,89.16,496,92.4,497.53,97.51,500.15,97.51Z" transform="translate(-288 -80.54)"/>
    <path d="M510.18,103.9a19.82,19.82,0,0,0,.17-2.69V88.68a18.9,18.9,0,0,0-.17-2.76h1.92v1.37a7.49,7.49,0,0,1-.07,1,5.49,5.49,0,0,1,4.89-2.59c3.7,0,6,2.52,6,6.7s-2.31,6.69-5.91,6.69A5.73,5.73,0,0,1,512,96.53a13.72,13.72,0,0,1,.09,1.68v3a18.33,18.33,0,0,0,.17,2.72ZM521,92.38c0-3.27-1.53-5.14-4.22-5.14s-4.63,2.06-4.63,5.16a5.4,5.4,0,0,0,1.37,3.84,4.71,4.71,0,0,0,3.28,1.27C519.42,97.51,521,95.57,521,92.38Z" transform="translate(-288 -80.54)"/>
    <path d="M525.11,92.4c0-4.15,2.49-6.79,6.41-6.79s6.38,2.64,6.38,6.77-2.5,6.79-6.36,6.79S525.11,96.55,525.11,92.4Zm1.85-.05c0,3.27,1.75,5.26,4.56,5.26s4.53-2,4.53-5.23-1.73-5.26-4.49-5.26S527,89.11,527,92.35Z" transform="translate(-288 -80.54)"/>
    <path d="M540.71,98.86a15.81,15.81,0,0,0,.19-2.72V88.63a16.63,16.63,0,0,0-.19-2.71h2v1.63a6.56,6.56,0,0,1-.07,1,5.21,5.21,0,0,1,4.85-2.9,4.34,4.34,0,0,1,3.84,1.8,4.94,4.94,0,0,1,.67,2.76v5.93a16.37,16.37,0,0,0,.17,2.69H550a19.52,19.52,0,0,0,.16-2.72V90.55c0-2.16-1-3.31-2.92-3.31a4.18,4.18,0,0,0-3.44,1.9,5.11,5.11,0,0,0-1.1,2.37v4.63a19.46,19.46,0,0,0,.17,2.72Z" transform="translate(-288 -80.54)"/>
    <path d="M556.81,95a2.71,2.71,0,0,0,.84,1.75,4.08,4.08,0,0,0,2.79.84c2.08,0,3.4-.89,3.4-2.31a1.61,1.61,0,0,0-.74-1.48,7.74,7.74,0,0,0-2.83-.87,9,9,0,0,1-3.55-1.25,2.94,2.94,0,0,1-1.3-2.52,3.23,3.23,0,0,1,1-2.33,5.29,5.29,0,0,1,3.75-1.24A5.49,5.49,0,0,1,564,86.76a3.9,3.9,0,0,1,1.28,2.18l-1.9.32a2.17,2.17,0,0,0-.6-1.28,3.29,3.29,0,0,0-2.5-.91c-1.75,0-3,.89-3,2.16a1.48,1.48,0,0,0,.82,1.32,8.94,8.94,0,0,0,2.66.82c2.33.53,3.1.81,3.82,1.37a3.17,3.17,0,0,1,1.15,2.49c0,2.4-2,3.89-5.33,3.89-2.18,0-3.86-.65-4.75-1.87a4.76,4.76,0,0,1-.77-1.9Z" transform="translate(-288 -80.54)"/>
    <path d="M569.65,92.66a5.4,5.4,0,0,0,1,3.36A4,4,0,0,0,574,97.66a3.93,3.93,0,0,0,4-2.81l1.68.67a5.77,5.77,0,0,1-1.32,2A6,6,0,0,1,574,99.19c-3.77,0-6.14-2.64-6.14-6.79s2.35-6.79,5.95-6.79a5.67,5.67,0,0,1,5.81,5.21c0,.26.12,1.2.17,1.84Zm8.19-1.51a4.4,4.4,0,0,0-1.28-3,3.89,3.89,0,0,0-2.83-1.08,3.76,3.76,0,0,0-3.41,2.09,5.22,5.22,0,0,0-.6,1.94Z" transform="translate(-288 -80.54)"/>
  </g>
  <g>
    <path d="M367.32,567a15.84,15.84,0,0,0-2.69-.16h-7c-1.15,0-1.82,0-2.64.07a16,16,0,0,0,.19-2.86V551.28a17.07,17.07,0,0,0-.19-2.74c.84.05,1.49.07,2.64.07h6.84a18,18,0,0,0,2.69-.16v2a16.86,16.86,0,0,0-2.69-.17h-7.39v6.15h6.31a18.74,18.74,0,0,0,2.69-.17v2a16.29,16.29,0,0,0-2.69-.17h-6.31v7.06h7.61a17.75,17.75,0,0,0,2.66-.17Z" transform="translate(-288 -80.54)"/>
    <path d="M378.6,566.86a17.69,17.69,0,0,0-1.08-1.78L375,561.41l-2.67,3.89a11.08,11.08,0,0,0-.93,1.56H369c.38-.48,1-1.32,1.56-2.09l3.34-4.61-3.1-4.32c-.14-.22-.34-.46-1.44-1.92h2.35a8.28,8.28,0,0,0,.94,1.61l2.35,3.38,2.33-3.38a11.13,11.13,0,0,0,.94-1.61h2.3c-.55.77-1.06,1.41-1.46,2l-3,4.25,3.17,4.42,1.73,2.28Z" transform="translate(-288 -80.54)"/>
    <path d="M386.79,550.34a17.36,17.36,0,0,0-.17,2.67v.91h1.15a14.85,14.85,0,0,0,2.45-.14v1.82a14.5,14.5,0,0,0-2.45-.14h-1.15v8.35c0,.69.09,1.05.31,1.27a1.64,1.64,0,0,0,1.18.41,3.33,3.33,0,0,0,1.89-.63l.53,1.68a6.43,6.43,0,0,1-2.71.56,3.32,3.32,0,0,1-2.36-.75,3,3,0,0,1-.67-2.3v-8.59h-1a15.47,15.47,0,0,0-2.16.14v-1.82a10.9,10.9,0,0,0,2.16.14h1V553a17,17,0,0,0-.17-2.67Z" transform="translate(-288 -80.54)"/>
    <path d="M393.74,560.66a5.53,5.53,0,0,0,1,3.36,4,4,0,0,0,3.39,1.64,3.92,3.92,0,0,0,4-2.81l1.68.67a5.77,5.77,0,0,1-1.32,2,6,6,0,0,1-4.35,1.68c-3.76,0-6.14-2.64-6.14-6.79s2.35-6.79,5.95-6.79a5.67,5.67,0,0,1,5.81,5.21c0,.26.12,1.2.17,1.84Zm8.19-1.51a4.35,4.35,0,0,0-1.27-2.95,3.9,3.9,0,0,0-2.83-1.08,3.74,3.74,0,0,0-3.41,2.09,4.88,4.88,0,0,0-.6,1.94Z" transform="translate(-288 -80.54)"/>
    <path d="M414.41,555.77a5.67,5.67,0,0,0-2-.36,3.54,3.54,0,0,0-2.95,1.46,4,4,0,0,0-.89,2.4v4.9a18.83,18.83,0,0,0,.17,2.69h-2.16a22,22,0,0,0,.17-2.72v-7.51a17.3,17.3,0,0,0-.17-2.71h2v1.37c0,.19,0,.55,0,.72a4.29,4.29,0,0,1,1.32-1.47,4.78,4.78,0,0,1,2.88-.84,11,11,0,0,1,2.14.22Z" transform="translate(-288 -80.54)"/>
    <path d="M417,566.86a14.87,14.87,0,0,0,.19-2.72v-7.51a15.58,15.58,0,0,0-.19-2.71h2v1.63a6.56,6.56,0,0,1-.07,1,5.23,5.23,0,0,1,4.85-2.9,4.32,4.32,0,0,1,3.84,1.8,4.86,4.86,0,0,1,.67,2.76v5.93a16.37,16.37,0,0,0,.17,2.69h-2.16a19.46,19.46,0,0,0,.17-2.72v-5.59c0-2.16-1-3.31-2.93-3.31a4.18,4.18,0,0,0-3.43,1.9,5.12,5.12,0,0,0-1.11,2.37v4.63a19.46,19.46,0,0,0,.17,2.72Z" transform="translate(-288 -80.54)"/>
    <path d="M440.33,565.15a6.4,6.4,0,0,1-2.21,1.47,7.15,7.15,0,0,1-2.5.48c-2.64,0-4.24-1.37-4.24-3.65,0-1.92,1.2-3.31,3.43-3.94a19.46,19.46,0,0,1,5.52-.62V557.5c0-1.64-1-2.48-3-2.48a3.91,3.91,0,0,0-3,1,3.34,3.34,0,0,0-.75,1.39l-1.87-.41a4.79,4.79,0,0,1,1.35-2.14,6,6,0,0,1,4.22-1.36c3.17,0,4.8,1.34,4.8,3.93v6.75a15.76,15.76,0,0,0,.19,2.64h-1.94Zm0-4.85c-2.86.08-4.23.24-5.31.7a2.55,2.55,0,0,0-1.82,2.47c0,1.32,1,2.16,2.54,2.16a5.4,5.4,0,0,0,3.84-1.7,2.61,2.61,0,0,0,.75-2.07Z" transform="translate(-288 -80.54)"/>
    <path d="M447.74,548.61a17.67,17.67,0,0,0-.16,2.72v12.84a19.08,19.08,0,0,0,.16,2.69h-2.16a18.17,18.17,0,0,0,.17-2.69V551.3a17.37,17.37,0,0,0-.17-2.69Z" transform="translate(-288 -80.54)"/>
    <path d="M471.43,566.86a16.89,16.89,0,0,0-1.41-4.11c-1.4-3.29-2.33-4.22-4.25-4.22h-4.44v5.61a14.93,14.93,0,0,0,.19,2.72h-2.23a15,15,0,0,0,.19-2.69V551.3a17.68,17.68,0,0,0-.19-2.76c.84.05,1.51.07,2.61.07h5.28c3.48,0,5.4,1.64,5.4,4.61a4.31,4.31,0,0,1-1.44,3.53,4.86,4.86,0,0,1-2.59,1.2c1,.29,1.59.94,2.45,2.64.58,1.13,1.15,2.38,1.9,4a19.94,19.94,0,0,0,1.08,2.24Zm-4.41-10a3.82,3.82,0,0,0,2.71-1,3.17,3.17,0,0,0,.91-2.42c0-2-1.2-3.15-3.48-3.15h-5.83v6.6Z" transform="translate(-288 -80.54)"/>
    <path d="M477.79,560.66a5.4,5.4,0,0,0,1,3.36,4,4,0,0,0,3.39,1.64,3.93,3.93,0,0,0,4-2.81l1.68.67a5.77,5.77,0,0,1-1.32,2,6,6,0,0,1-4.35,1.68c-3.77,0-6.14-2.64-6.14-6.79s2.35-6.79,5.95-6.79a5.67,5.67,0,0,1,5.81,5.21c0,.26.12,1.2.17,1.84Zm8.19-1.51a4.4,4.4,0,0,0-1.28-2.95,3.89,3.89,0,0,0-2.83-1.08,3.76,3.76,0,0,0-3.41,2.09,5.22,5.22,0,0,0-.6,1.94Z" transform="translate(-288 -80.54)"/>
    <path d="M492,563a2.71,2.71,0,0,0,.84,1.75,4.08,4.08,0,0,0,2.79.84c2.08,0,3.4-.89,3.4-2.31a1.61,1.61,0,0,0-.74-1.48,7.74,7.74,0,0,0-2.83-.87,9,9,0,0,1-3.55-1.25,2.94,2.94,0,0,1-1.3-2.52,3.19,3.19,0,0,1,1-2.32,5.25,5.25,0,0,1,3.75-1.25,5.49,5.49,0,0,1,3.76,1.15,3.9,3.9,0,0,1,1.28,2.18l-1.9.32a2.17,2.17,0,0,0-.6-1.28,3.29,3.29,0,0,0-2.5-.91c-1.75,0-3,.89-3,2.16a1.48,1.48,0,0,0,.82,1.32,8.94,8.94,0,0,0,2.66.82c2.33.53,3.1.81,3.82,1.37a3.17,3.17,0,0,1,1.15,2.49c0,2.4-2,3.89-5.33,3.89-2.18,0-3.86-.65-4.75-1.87a4.76,4.76,0,0,1-.77-1.9Z" transform="translate(-288 -80.54)"/>
    <path d="M503,560.4c0-4.15,2.49-6.79,6.41-6.79s6.38,2.64,6.38,6.77-2.5,6.79-6.36,6.79S503,564.55,503,560.4Zm1.84,0c0,3.27,1.76,5.26,4.57,5.26s4.53-2,4.53-5.23-1.73-5.26-4.49-5.26S504.81,557.11,504.81,560.35Z" transform="translate(-288 -80.54)"/>
    <path d="M528,565.3a7.55,7.55,0,0,1,.07-1.06,5.24,5.24,0,0,1-4.85,2.86,4.39,4.39,0,0,1-3.84-1.78,5.27,5.27,0,0,1-.67-2.78v-5.93a17.29,17.29,0,0,0-.17-2.69h2.16a18.55,18.55,0,0,0-.16,2.71v5.59c0,2.14,1,3.34,2.9,3.34a4.13,4.13,0,0,0,3.46-1.9,5.69,5.69,0,0,0,1.1-2.4v-4.63a18.64,18.64,0,0,0-.17-2.71H530a18,18,0,0,0-.17,2.71v7.51a16.75,16.75,0,0,0,.19,2.72h-2Z" transform="translate(-288 -80.54)"/>
    <path d="M541.18,555.77a5.7,5.7,0,0,0-1.95-.36,3.54,3.54,0,0,0-3,1.46,4,4,0,0,0-.89,2.4v4.9a18.83,18.83,0,0,0,.17,2.69H533.4a22,22,0,0,0,.17-2.72v-7.51a17.3,17.3,0,0,0-.17-2.71h2v1.37c0,.19,0,.55,0,.72a4.1,4.1,0,0,1,1.32-1.47,4.78,4.78,0,0,1,2.88-.84,10.8,10.8,0,0,1,2.13.22Z" transform="translate(-288 -80.54)"/>
    <path d="M552.91,557.88a3.62,3.62,0,0,0-3.62-2.76c-2.64,0-4.32,2.06-4.32,5.28s1.72,5.18,4.41,5.18a3.55,3.55,0,0,0,3.12-1.53,3.94,3.94,0,0,0,.53-1.23l1.8.48a6.34,6.34,0,0,1-1,1.85,5.54,5.54,0,0,1-4.54,2c-3.77,0-6.19-2.62-6.19-6.72s2.4-6.87,6.07-6.87a5.44,5.44,0,0,1,4.63,2.21,6.11,6.11,0,0,1,.84,1.54Z" transform="translate(-288 -80.54)"/>
    <path d="M558.81,560.66a5.53,5.53,0,0,0,1,3.36,4,4,0,0,0,3.39,1.64,3.92,3.92,0,0,0,4-2.81l1.68.67a5.77,5.77,0,0,1-1.32,2,6,6,0,0,1-4.35,1.68c-3.76,0-6.14-2.64-6.14-6.79s2.35-6.79,6-6.79a5.67,5.67,0,0,1,5.81,5.21c0,.26.12,1.2.17,1.84Zm8.19-1.51a4.39,4.39,0,0,0-1.27-2.95,3.9,3.9,0,0,0-2.83-1.08,3.74,3.74,0,0,0-3.41,2.09,4.88,4.88,0,0,0-.6,1.94Z" transform="translate(-288 -80.54)"/>
    <path d="M573,563a2.71,2.71,0,0,0,.84,1.75,4.08,4.08,0,0,0,2.79.84c2.09,0,3.41-.89,3.41-2.31a1.6,1.6,0,0,0-.75-1.48,7.59,7.59,0,0,0-2.83-.87,9,9,0,0,1-3.55-1.25,2.94,2.94,0,0,1-1.3-2.52,3.19,3.19,0,0,1,1-2.32,5.25,5.25,0,0,1,3.75-1.25,5.54,5.54,0,0,1,3.77,1.15,3.89,3.89,0,0,1,1.27,2.18l-1.9.32a2.17,2.17,0,0,0-.6-1.28,3.26,3.26,0,0,0-2.49-.91c-1.76,0-3,.89-3,2.16a1.47,1.47,0,0,0,.81,1.32,8.93,8.93,0,0,0,2.67.82c2.32.53,3.09.81,3.81,1.37a3.14,3.14,0,0,1,1.15,2.49c0,2.4-2,3.89-5.32,3.89-2.19,0-3.87-.65-4.76-1.87a4.77,4.77,0,0,1-.76-1.9Z" transform="translate(-288 -80.54)"/>
  </g>
  <polygon class="cls-3" points="198 414.46 216 436.96 207 436.96 207 459.46 189 459.46 189 436.96 180 436.96 198 414.46"/>
  <polygon class="cls-3" points="162 459.46 144 436.96 153 436.96 153 414.46 171 414.46 171 436.96 180 436.96 162 459.46"/>
  <line class="cls-2" x1="72" y1="135.46" x2="72" y2="423.46"/>
  <rect class="cls-3" x="486" y="270" width="288" height="108" transform="translate(666 -386.54) rotate(90)"/>
  <g>
    <path d="M610.17,432a15.92,15.92,0,0,0-2.69-.16h-7c-1.15,0-1.82,0-2.64.07a15.86,15.86,0,0,0,.2-2.86V416.28a17.09,17.09,0,0,0-.2-2.74c.84,0,1.49.07,2.64.07h6.85a17.87,17.87,0,0,0,2.68-.16v2a16.73,16.73,0,0,0-2.68-.17h-7.4v6.15h6.32a18.69,18.69,0,0,0,2.68-.17v2a16.16,16.16,0,0,0-2.68-.17h-6.32v7.06h7.61a17.8,17.8,0,0,0,2.67-.17Z" transform="translate(-288 -80.54)"/>
    <path d="M613.09,431.86a14.87,14.87,0,0,0,.19-2.72v-7.51a15.58,15.58,0,0,0-.19-2.71h2v1.63a6.56,6.56,0,0,1-.07,1,5.23,5.23,0,0,1,4.85-2.9,4.32,4.32,0,0,1,3.84,1.8,4.86,4.86,0,0,1,.67,2.76v5.93a16.37,16.37,0,0,0,.17,2.69h-2.16a19.46,19.46,0,0,0,.17-2.72v-5.59c0-2.16-1-3.31-2.93-3.31a4.19,4.19,0,0,0-3.43,1.89,5.2,5.2,0,0,0-1.11,2.38v4.63a19.46,19.46,0,0,0,.17,2.72Z" transform="translate(-288 -80.54)"/>
    <path d="M631.6,415.34a17.36,17.36,0,0,0-.17,2.67v.91h1.15a16,16,0,0,0,2.45-.14v1.82a14.5,14.5,0,0,0-2.45-.14h-1.15v8.35c0,.69.09,1.05.31,1.27a1.64,1.64,0,0,0,1.18.41,3.33,3.33,0,0,0,1.89-.63l.53,1.68a6.43,6.43,0,0,1-2.71.56,3.27,3.27,0,0,1-2.35-.75,3,3,0,0,1-.68-2.3v-8.59h-1a15.57,15.57,0,0,0-2.16.14v-1.82a11.86,11.86,0,0,0,2.16.14h1V418a18.34,18.34,0,0,0-.16-2.67Z" transform="translate(-288 -80.54)"/>
    <path d="M639.64,413.61v2.14h-2.33v-2.14Zm-.1,5.31a17.13,17.13,0,0,0-.17,2.71v7.51a19,19,0,0,0,.17,2.72h-2.16a21,21,0,0,0,.17-2.72v-7.51a17.56,17.56,0,0,0-.17-2.71Z" transform="translate(-288 -80.54)"/>
    <path d="M646.72,415.34a17.36,17.36,0,0,0-.17,2.67v.91h1.15a16,16,0,0,0,2.45-.14v1.82a14.5,14.5,0,0,0-2.45-.14h-1.15v8.35c0,.69.09,1.05.31,1.27a1.64,1.64,0,0,0,1.18.41,3.33,3.33,0,0,0,1.89-.63l.53,1.68a6.43,6.43,0,0,1-2.71.56,3.27,3.27,0,0,1-2.35-.75,3,3,0,0,1-.68-2.3v-8.59h-1a15.57,15.57,0,0,0-2.16.14v-1.82a11.86,11.86,0,0,0,2.16.14h1V418a18.34,18.34,0,0,0-.16-2.67Z" transform="translate(-288 -80.54)"/>
    <path d="M652.31,421.73c-1.08-2.38-1.08-2.38-1.32-2.81h2.35a12.9,12.9,0,0,0,.82,2.54l3.48,8.07,3.09-8.07a11,11,0,0,0,.79-2.54h2.24c-.15.36-.55,1.29-1.18,2.81l-5.38,13.1a3.26,3.26,0,0,1-3.38,2.23,9.3,9.3,0,0,1-2-.26l.51-1.78a3,3,0,0,0,1.46.41,1.86,1.86,0,0,0,1.78-1.32l1.1-2.64Z" transform="translate(-288 -80.54)"/>
  </g>
  <g>
    <path d="M602.88,222.05a15.58,15.58,0,0,0,.19,2.81h-2.28a14.65,14.65,0,0,0,.19-2.81V209.28a16.15,16.15,0,0,0-.19-2.74c.84.05,1.49.07,2.64.07h6.36a18.74,18.74,0,0,0,2.76-.16v2a16.74,16.74,0,0,0-2.76-.17h-6.91v6.19h5.62a18.2,18.2,0,0,0,2.73-.17v2a16.58,16.58,0,0,0-2.73-.17h-5.62Z" transform="translate(-288 -80.54)"/>
    <path d="M614.5,218.4c0-4.15,2.49-6.79,6.4-6.79s6.39,2.64,6.39,6.77-2.5,6.79-6.36,6.79S614.5,222.55,614.5,218.4Zm1.84-.05c0,3.27,1.76,5.26,4.56,5.26s4.54-2,4.54-5.23-1.73-5.26-4.49-5.26S616.34,215.11,616.34,218.35Z" transform="translate(-288 -80.54)"/>
    <path d="M637.87,213.77a5.62,5.62,0,0,0-1.94-.36,3.53,3.53,0,0,0-2.95,1.46,3.91,3.91,0,0,0-.89,2.4v4.9a18.83,18.83,0,0,0,.17,2.69H630.1a21.94,21.94,0,0,0,.16-2.72v-7.51a17.45,17.45,0,0,0-.16-2.71h2v1.37a5.62,5.62,0,0,1,0,.72,4.29,4.29,0,0,1,1.32-1.47,4.8,4.8,0,0,1,2.88-.84,11,11,0,0,1,2.14.22Z" transform="translate(-288 -80.54)"/>
    <path d="M640.42,224.86a18.26,18.26,0,0,0,.16-2.72v-7.51a17.45,17.45,0,0,0-.16-2.71h1.94v1.32c0,.12,0,.41-.05.86a5.11,5.11,0,0,1,.91-1.2,4.71,4.71,0,0,1,3.39-1.25,3.89,3.89,0,0,1,3.1,1.23,3.22,3.22,0,0,1,.74,1.39,4.71,4.71,0,0,1,4.44-2.62,4.15,4.15,0,0,1,3.5,1.47,4.86,4.86,0,0,1,.82,3.12v5.93a16.86,16.86,0,0,0,.17,2.69h-2.16a15,15,0,0,0,.17-2.72v-5.66c0-2.28-.84-3.27-2.76-3.27a3.6,3.6,0,0,0-3,1.76,5.2,5.2,0,0,0-.79,2.47v4.73a16.7,16.7,0,0,0,.17,2.69h-2.16a17.42,17.42,0,0,0,.16-2.72v-5.66c0-2.11-1-3.27-2.68-3.27a3.78,3.78,0,0,0-3.15,1.83,5.4,5.4,0,0,0-.79,2.4v4.7a19.17,19.17,0,0,0,.17,2.72Z" transform="translate(-288 -80.54)"/>
  </g>
  <g>
    <path d="M587.1,299.28a17.85,17.85,0,0,0-.19-2.74c.84,0,1.49.07,2.64.07h4.05c5.36,0,8.41,3.27,8.41,9a9.72,9.72,0,0,1-2.57,7.1,8,8,0,0,1-5.84,2.14h-4.05c-1.15,0-1.8,0-2.64.07a17.41,17.41,0,0,0,.19-2.86Zm6.46,13.9a5.9,5.9,0,0,0,4.49-1.71,8.15,8.15,0,0,0,2-5.85c0-2.5-.62-4.42-1.89-5.69a5.92,5.92,0,0,0-4.52-1.64H589v14.89Z" transform="translate(-288 -80.54)"/>
    <path d="M604.36,308.4c0-4.15,2.49-6.79,6.4-6.79s6.39,2.64,6.39,6.77-2.5,6.79-6.36,6.79S604.36,312.55,604.36,308.4Zm1.84,0c0,3.27,1.76,5.26,4.56,5.26s4.54-2,4.54-5.23-1.73-5.26-4.49-5.26S606.2,305.11,606.2,308.35Z" transform="translate(-288 -80.54)"/>
    <path d="M620,314.86a18.26,18.26,0,0,0,.16-2.72v-7.51a17.45,17.45,0,0,0-.16-2.71h1.94v1.32c0,.12,0,.41,0,.86a5.11,5.11,0,0,1,.91-1.2,4.71,4.71,0,0,1,3.39-1.25,3.89,3.89,0,0,1,3.1,1.23,3.22,3.22,0,0,1,.74,1.39,4.71,4.71,0,0,1,4.44-2.62,4.15,4.15,0,0,1,3.5,1.47,4.86,4.86,0,0,1,.82,3.12v5.93a16.86,16.86,0,0,0,.17,2.69h-2.16a15,15,0,0,0,.17-2.72v-5.66c0-2.28-.84-3.27-2.76-3.27a3.6,3.6,0,0,0-3,1.76,5.2,5.2,0,0,0-.79,2.47v4.73a16.7,16.7,0,0,0,.17,2.69h-2.16a17.42,17.42,0,0,0,.16-2.72v-5.66c0-2.11-1-3.27-2.68-3.27a3.78,3.78,0,0,0-3.15,1.83,5.4,5.4,0,0,0-.79,2.4v4.7a19.17,19.17,0,0,0,.17,2.72Z" transform="translate(-288 -80.54)"/>
    <path d="M650.84,313.15a6.37,6.37,0,0,1-2.2,1.47,7.15,7.15,0,0,1-2.5.48c-2.64,0-4.25-1.37-4.25-3.65,0-1.92,1.2-3.31,3.43-3.94a19.51,19.51,0,0,1,5.52-.62V305.5c0-1.64-1-2.48-3-2.48a3.94,3.94,0,0,0-3,1,3.35,3.35,0,0,0-.74,1.39l-1.87-.41a4.78,4.78,0,0,1,1.34-2.14,6.08,6.08,0,0,1,4.23-1.37c3.16,0,4.8,1.35,4.8,3.94v6.75a14.77,14.77,0,0,0,.19,2.64h-1.95Zm0-4.85c-2.85.08-4.22.24-5.3.7a2.55,2.55,0,0,0-1.82,2.47c0,1.32,1,2.16,2.54,2.16a5.44,5.44,0,0,0,3.84-1.7,2.63,2.63,0,0,0,.74-2.07Z" transform="translate(-288 -80.54)"/>
    <path d="M658.4,296.61v2.14h-2.32v-2.14Zm-.09,5.31a17.13,17.13,0,0,0-.17,2.71v7.51a19,19,0,0,0,.17,2.72h-2.16a21,21,0,0,0,.17-2.72v-7.51a17.56,17.56,0,0,0-.17-2.71Z" transform="translate(-288 -80.54)"/>
    <path d="M661.81,314.86a14.87,14.87,0,0,0,.19-2.72v-7.51a15.58,15.58,0,0,0-.19-2.71h2v1.63a6.56,6.56,0,0,1-.07,1,5.21,5.21,0,0,1,4.85-2.9,4.32,4.32,0,0,1,3.84,1.8,4.86,4.86,0,0,1,.67,2.76v5.93a16.37,16.37,0,0,0,.17,2.69H671.1a19.46,19.46,0,0,0,.17-2.72v-5.59c0-2.16-1-3.31-2.93-3.31a4.18,4.18,0,0,0-3.43,1.9,5.12,5.12,0,0,0-1.11,2.37v4.63a19.46,19.46,0,0,0,.17,2.72Z" transform="translate(-288 -80.54)"/>
    <path d="M608.67,329.74c0,5.78-3.24,9.48-8.31,9.48s-8.28-3.7-8.28-9.48,3.26-9.49,8.3-9.49S608.67,324,608.67,329.74Zm-4.11,6.14a8.58,8.58,0,0,0,2.14-6.14,8.44,8.44,0,0,0-2.11-6.15,5.88,5.88,0,0,0-4.21-1.66c-3.84,0-6.36,3.08-6.36,7.78s2.55,7.8,6.39,7.8A5.69,5.69,0,0,0,604.56,335.88Z" transform="translate(-288 -80.54)"/>
    <path d="M611.62,338.86a19.1,19.1,0,0,0,.16-2.76V323.33a20,20,0,0,0-.16-2.72h2.11a18.43,18.43,0,0,0-.17,2.74v3.24a11.86,11.86,0,0,1-.1,1.7,5.48,5.48,0,0,1,4.95-2.64c3.69,0,5.9,2.5,5.9,6.68s-2.25,6.77-6,6.77a5.41,5.41,0,0,1-3.72-1.3,4.38,4.38,0,0,1-1.13-1.25,8.17,8.17,0,0,1,.08,1v1.35Zm6.64-11.67c-2.83,0-4.7,2.07-4.7,5.14s1.87,5.21,4.63,5.21,4.28-2,4.28-5.24S620.93,327.19,618.26,327.19Z" transform="translate(-288 -80.54)"/>
    <path d="M629.93,325.92a17.13,17.13,0,0,0-.17,2.71v11.79c0,2.54-1.08,3.64-3.58,3.64a4.11,4.11,0,0,1-3.57-1.75l1.65-1.08a2.26,2.26,0,0,0,2,1.25c1.22,0,1.66-.58,1.66-2.21V328.63a17.39,17.39,0,0,0-.17-2.71Zm.09-5.31v2.16H627.7v-2.16Z" transform="translate(-288 -80.54)"/>
    <path d="M634.7,332.66a5.53,5.53,0,0,0,1,3.36,4,4,0,0,0,3.39,1.64,3.92,3.92,0,0,0,4-2.81l1.68.67a5.77,5.77,0,0,1-1.32,2,6,6,0,0,1-4.35,1.68c-3.76,0-6.14-2.64-6.14-6.79s2.35-6.79,6-6.79a5.67,5.67,0,0,1,5.81,5.21c0,.26.12,1.2.17,1.84Zm8.19-1.51a4.44,4.44,0,0,0-1.27-2.95,3.91,3.91,0,0,0-2.84-1.08,3.74,3.74,0,0,0-3.4,2.09,4.88,4.88,0,0,0-.6,1.94Z" transform="translate(-288 -80.54)"/>
    <path d="M656.78,329.88c-.69-1.87-1.84-2.76-3.62-2.76-2.64,0-4.32,2.06-4.32,5.28s1.73,5.18,4.42,5.18a3.57,3.57,0,0,0,3.12-1.53,3.73,3.73,0,0,0,.52-1.23l1.8.48a6.34,6.34,0,0,1-1,1.85,5.54,5.54,0,0,1-4.54,2c-3.76,0-6.19-2.62-6.19-6.72s2.4-6.87,6.07-6.87a5.46,5.46,0,0,1,4.64,2.21,6.82,6.82,0,0,1,.84,1.54Z" transform="translate(-288 -80.54)"/>
    <path d="M665.14,322.34A17.36,17.36,0,0,0,665,325v.91h1.15a13.74,13.74,0,0,0,2.45-.15v1.83a14.5,14.5,0,0,0-2.45-.14H665v8.35c0,.69.09,1.05.31,1.27a1.64,1.64,0,0,0,1.18.41,3.33,3.33,0,0,0,1.89-.63l.53,1.68a6.43,6.43,0,0,1-2.71.56,3.27,3.27,0,0,1-2.35-.75,3,3,0,0,1-.68-2.3v-8.59h-1a15.57,15.57,0,0,0-2.16.14v-1.83a10.2,10.2,0,0,0,2.16.15h1V325a18.34,18.34,0,0,0-.16-2.67Z" transform="translate(-288 -80.54)"/>
  </g>
  <line class="cls-2" x1="432" y1="63.46" x2="432" y2="423.46"/>
  <line class="cls-2" x1="504" y1="63.46" x2="504" y2="423.46"/>
  <polygon class="cls-3" points="198 27.46 216 49.96 207 49.96 207 72.46 189 72.46 189 49.96 180 49.96 198 27.46"/>
  <polygon class="cls-3" points="162 72.46 144 49.96 153 49.96 153 27.46 171 27.46 171 49.96 180 49.96 162 72.46"/>
</svg>
